<?xml  version="1.0" encoding="UTF-8"?>
<!DOCTYPE svg PUBLIC "-//W3C//DTD SVG 1.0//EN" "http://www.w3.org/TR/2001/REC-SVG-20010904/DTD/svg10.dtd" >
<svg xmlns="http://www.w3.org/2000/svg" >
<metadata>
<version>1.0</version>
<id><![CDATA[Avenir LT W02 95 Black]]></id>
<vendor>Monotype Imaging Inc.</vendor>
<credits>
<name>Fonts.com WebFonts</name>
<URL>http://webfonts.fonts.com</URL>
<role>Home of the Web fonts</role>
</credits>
<license>
<URL>http://webfonts.fonts.com/Legal</URL>
</license>
<copyright><![CDATA[Part of the digitally encoded machine readable outline data for producing the Typefaces provided is copyrighted © 2007 Linotype GmbH, www.linotype.com. All rights reserved. This software is the property of Linotype GmbH, and may not be reproduced, used, displayed, modified, disclosed or transferred without the express written approval of Linotype GmbH.  The digitally encoded machine readable software for producing the Typefaces licensed to you is copyrighted (c) 1989, 1995 Adobe Systems. All Rights Reserved. This software is the property of Adobe Systems Incorporated and its licensors, and may not be reproduced, used, displayed, modified, disclosed or transferred without the express written approval of Adobe. Avenir is a trademark of Linotype GmbH and may be registered in certain jurisdictions. This typeface is original artwork of Adrian Frutiger. The design may be protected in certain jurisdictions.]]></copyright>
<trademark><![CDATA[Avenir is a trademark of Linotype GmbH and may be registered in certain jurisdictions.]]></trademark>
<licensee>
<name></name>
</licensee>
</metadata>
<defs >
<font horiz-adv-x="558" id="1cda1791-25c1-48d3-9056-3b04b763b592">
<font-face font-family="" panose-1="2 11 8 3 2 2 3 2 2 4" ascent="950" descent="-288" units-per-em="1000" alphabetic="0">
</font-face>
<missing-glyph horiz-adv-x="0" />

<glyph unicode="&#xA;" />
<glyph unicode="&#xD;" horiz-adv-x="0" />
<glyph unicode=" " horiz-adv-x="296" />
<glyph unicode="!" horiz-adv-x="444" d="M297 234H147V708H297V234ZM130 86Q130 105 137 122T156 151T186 171T222 178Q241 178 258 171T287 152T307 122T314 86Q314 67 307 50T288 21T258 1T222 -6Q203 -6 186 1T157 20T137 50T130 86Z"  />
<glyph unicode="&quot;" horiz-adv-x="520" d="M313 708H439V426H313V708ZM81 708H207V426H81V708Z"  />
<glyph unicode="#" horiz-adv-x="592" d="M129 201H45V291H141L158 417H74V507H170L198 708H295L267 507H366L394 708H491L463 507H547V417H451L434 291H518V201H422L394 0H297L325 201H226L198 0H101L129 201ZM354 417H255L238 291H337L354 417Z"  />
<glyph unicode="$" horiz-adv-x="592" d="M328 720Q382 720 440 706T542 657L446 540Q422 561 391 570T328 582V423L424 395Q490 375 529 330T569 214Q569 161 550 121T498 53T421 9T328 -12V-82H262V-12Q196 -12 131 6T15 69L121 188Q147 156 184 143T262 126V295L189 317Q113 341 74 384T34 504Q34 551 53 589T103 654T176 698T262 720V790H328V720ZM262 579Q234 573 212 558T190 511Q190 488 199 475T220 455T244 444T262 439V579ZM328 128Q343 131 358 136T386 151T405 172T413 202Q413 218 408 229T393 247T372 260T347 271L328 278V128Z"  />
<glyph unicode="%" horiz-adv-x="907" d="M508 187Q508 228 523 264T565 327T628 369T705 385Q746 385 782 370T844 327T886 264T902 187Q902 146 887 110T845 46T782 4T705 -12Q664 -12 628 3T566 46T524 109T508 187ZM800 187Q800 227 773 255T705 283Q665 283 638 255T610 187Q610 146 637 118T705 90Q745 90 772 118T800 187ZM5 522Q5 563 20 599T62 662T125 704T202 720Q243 720 279 705T341 662T383 599T399 522Q399 481 384 445T342 382T279 340T202 324Q161 324 125 339T63 382T21 445T5 522ZM297 522Q297 562 270 590T202 618Q162 618 135 590T107 522Q107 482 134 454T202 426Q242 426 269 454T297 522ZM615 740L699 693L286 -32L210 11L615 740Z"  />
<glyph unicode="&amp;" horiz-adv-x="759" d="M595 167L753 0H560L501 67Q457 22 407 2T293 -18Q245 -18 200 -5T120 34T63 101T42 194Q42 228 53 258T85 314T133 357T192 387Q175 406 161 423T136 459T120 499T114 546Q114 594 132 628T182 684T253 716T335 726Q376 726 413 716T478 684T524 630T541 552Q541 520 531 493T502 443T461 401T410 368L501 271L570 365H744L595 167ZM333 606Q304 606 284 588T264 540Q264 527 270 515T284 491T303 469T323 451Q335 458 349 467T375 488T395 513T403 542Q403 573 383 589T333 606ZM285 302Q270 293 256 284T230 263T211 236T204 201Q204 181 212 165T233 138T263 121T299 114Q334 114 359 129T410 166L285 302Z"  />
<glyph unicode="&apos;" horiz-adv-x="296" d="M85 708H211V426H85V708Z"  />
<glyph unicode="(" horiz-adv-x="314" d="M293 672Q263 624 239 580T199 491T173 396T164 288Q164 230 173 181T198 86T239 -4T293 -96L190 -156L188 -152Q119 -49 82 57T44 288Q44 412 81 518T188 728L190 732L293 672Z"  />
<glyph unicode=")" horiz-adv-x="314" d="M21 -96Q51 -48 75 -4T115 85T141 180T150 288Q150 346 141 395T116 490T75 580T21 672L124 732L126 728Q195 625 232 519T270 288Q270 164 233 58T126 -152L124 -156L21 -96Z"  />
<glyph unicode="*" horiz-adv-x="482" d="M293 570L424 613L454 518L323 476L406 362L323 301L239 416L158 306L77 367L161 476L28 522L60 617L191 570V708H293V570Z"  />
<glyph unicode="+" horiz-adv-x="666" d="M59 366H270V577H396V366H607V240H396V29H270V240H59V366Z"  />
<glyph unicode="&#x2c;" horiz-adv-x="296" d="M91 162H235L145 -120H17L91 162Z"  />
<glyph unicode="-" horiz-adv-x="296" d="M271 189H25V309H271V189Z"  />
<glyph unicode="." horiz-adv-x="296" d="M56 86Q56 105 63 122T82 151T112 171T148 178Q167 178 184 171T213 152T233 122T240 86Q240 67 233 50T214 21T184 1T148 -6Q129 -6 112 1T83 20T63 50T56 86Z"  />
<glyph unicode="/" horiz-adv-x="407" d="M296 761L410 726L110 -53L-3 -18L296 761Z"  />
<glyph unicode="0" horiz-adv-x="592" d="M33 354Q33 417 44 482T85 600T166 686T296 720Q375 720 426 687T506 600T547 482T559 354Q559 291 548 226T507 108T426 22T296 -12Q217 -12 166 21T86 108T45 226T33 354ZM183 354Q183 326 185 287T199 212T232 151T296 126Q336 126 359 151T393 212T406 287T409 354Q409 382 407 421T393 496T359 557T296 582Q255 582 233 557T199 496T186 421T183 354Z"  />
<glyph unicode="1" horiz-adv-x="592" d="M288 540L146 415L61 513L292 708H432V0H288V540Z"  />
<glyph unicode="2" horiz-adv-x="592" d="M49 159L324 406Q345 425 366 449T387 505Q387 541 361 561T300 582Q258 582 235 556T208 492L58 503Q61 558 81 598T134 666T211 706T308 720Q356 720 398 707T471 667T519 600T537 507Q537 473 530 446T511 396T481 354T444 317L229 132H543V0H49V159Z"  />
<glyph unicode="3" horiz-adv-x="592" d="M216 429H265Q286 429 306 432T342 443T369 467T379 508Q379 540 354 561T291 582Q256 582 233 563T203 516L38 550Q50 596 74 628T131 681T204 710T290 720Q337 720 380 709T457 673T509 611T529 523Q529 464 498 422T408 368V365Q440 361 464 346T506 309T532 259T541 200Q541 147 521 107T466 41T385 1T286 -12Q191 -12 123 32T32 171L190 208Q198 170 222 148T295 126Q344 126 367 151T391 217Q391 247 379 263T346 288T301 297T251 299H216V429Z"  />
<glyph unicode="4" horiz-adv-x="592" d="M333 142H24V268L313 708H477V268H568V142H477V0H333V142ZM333 512H331L174 268H333V512Z"  />
<glyph unicode="5" horiz-adv-x="592" d="M517 576H236L233 467Q256 475 296 475Q350 475 395 459T472 413T523 339T541 241Q541 181 521 134T464 55T379 5T271 -12Q179 -12 117 33T32 169L189 205Q195 167 221 144T286 120Q334 120 362 150T391 226Q391 261 377 283T339 319T286 338T228 343Q191 343 154 336T81 317L89 708H517V576Z"  />
<glyph unicode="6" horiz-adv-x="592" d="M287 455Q299 458 311 460T336 462Q386 462 427 444T497 395T542 322T558 231Q558 176 538 132T482 55T398 6T294 -12Q238 -12 190 5T107 55T51 131T30 231Q30 269 37 300T55 360T82 413T115 466L270 708H453L287 455ZM408 237Q408 285 377 316T294 348Q243 348 212 317T180 237Q180 189 211 158T294 126Q345 126 376 157T408 237Z"  />
<glyph unicode="7" horiz-adv-x="592" d="M387 570H37V708H555V576L272 0H97L387 570Z"  />
<glyph unicode="8" horiz-adv-x="592" d="M59 525Q59 574 77 610T128 671T204 708T296 720Q345 720 388 708T463 672T514 611T533 525Q533 467 502 426T413 368V366Q477 349 511 305T545 194Q545 143 525 104T470 40T390 1T296 -12Q247 -12 202 1T123 39T68 104T47 194Q47 260 81 304T179 366V368Q122 385 91 426T59 525ZM209 504Q209 471 233 448T296 425Q335 425 359 448T383 504Q383 536 359 559T296 582Q257 582 233 559T209 504ZM197 215Q197 178 224 152T296 126Q341 126 368 152T395 215Q395 253 368 279T296 305Q251 305 224 279T197 215Z"  />
<glyph unicode="9" horiz-adv-x="592" d="M305 253Q293 250 281 248T256 246Q206 246 165 264T95 313T50 386T34 477Q34 532 54 576T110 653T194 702T298 720Q353 720 401 703T485 653T541 577T562 477Q562 439 555 408T537 348T510 295T477 242L322 0H139L305 253ZM184 471Q184 423 215 392T298 360Q349 360 380 391T412 471Q412 519 381 550T298 582Q247 582 216 551T184 471Z"  />
<glyph unicode=":" horiz-adv-x="296" d="M56 86Q56 105 63 122T82 151T112 171T148 178Q167 178 184 171T213 152T233 122T240 86Q240 67 233 50T214 21T184 1T148 -6Q129 -6 112 1T83 20T63 50T56 86ZM56 406Q56 425 63 442T82 471T112 491T148 498Q167 498 184 491T213 472T233 442T240 406Q240 387 233 370T214 341T184 321T148 314Q129 314 112 321T83 340T63 370T56 406Z"  />
<glyph unicode=";" horiz-adv-x="296" d="M91 162H235L145 -120H17L91 162ZM56 406Q56 425 63 442T82 471T112 491T148 498Q167 498 184 491T213 472T233 442T240 406Q240 387 233 370T214 341T184 321T148 314Q129 314 112 321T83 340T63 370T56 406Z"  />
<glyph unicode="&lt;" horiz-adv-x="666" d="M586 428L269 304V302L586 178V42L80 240V366L586 564V428Z"  />
<glyph unicode="=" horiz-adv-x="666" d="M59 462H607V336H59V462ZM59 270H607V144H59V270Z"  />
<glyph unicode="&gt;" horiz-adv-x="666" d="M80 178L397 302V304L80 428V564L586 366V240L80 42V178Z"  />
<glyph unicode="?" horiz-adv-x="556" d="M216 278Q216 308 224 329T251 368Q279 395 302 415T343 452T369 485T379 518Q379 551 359 569T307 588Q260 588 236 562T208 499L54 509Q65 615 132 670T304 726Q350 726 390 714T462 676T511 614T529 529Q529 500 523 477T503 430T465 384T405 332Q382 314 374 297T366 263V234H216V278ZM199 86Q199 105 206 122T225 151T255 171T291 178Q310 178 327 171T356 152T376 122T383 86Q383 67 376 50T357 21T327 1T291 -6Q272 -6 255 1T226 20T206 50T199 86Z"  />
<glyph unicode="@" horiz-adv-x="800" d="M475 364Q475 404 457 430T401 456Q355 456 328 420T301 332Q301 316 304 300T314 272T335 251T370 243Q401 243 421 254T454 282T470 321T475 364ZM568 337Q565 323 562 304T559 271Q559 260 564 252T586 243Q602 243 617 251T645 278T664 325T672 392Q672 452 653 497T599 574T516 620T411 636Q349 636 298 615T211 556T154 466T134 353Q134 287 156 235T217 147T311 92T428 72Q485 72 532 88T617 133H727Q673 59 593 21T420 -18Q340 -18 270 9T146 86T63 203T32 353Q32 433 62 501T144 619T265 697T414 726Q480 726 543 705T657 641T737 538T768 397Q768 344 756 305T724 239T680 195T631 169T584 157T546 153Q504 153 486 170T467 207H465Q445 187 415 170T337 153Q305 153 279 165T233 200T204 253T193 321Q193 365 207 405T246 477T309 527T393 546Q433 546 459 533T501 489H503L511 534H605L568 337Z"  />
<glyph unicode="A" horiz-adv-x="741" d="M305 708H434L742 0H566L505 150H230L171 0H-1L305 708ZM365 502L279 282H452L365 502Z"  />
<glyph unicode="B" horiz-adv-x="648" d="M72 708H336Q382 708 428 702T512 676T572 621T595 528Q595 468 562 429T473 372V370Q508 365 536 351T585 314T617 261T628 197Q628 141 604 104T542 43T457 10T362 0H72V708ZM228 425H341Q359 425 376 429T408 442T430 466T439 502Q439 524 430 538T405 561T371 572T334 576H228V425ZM228 132H368Q386 132 404 136T438 150T462 176T472 215Q472 240 460 255T428 279T387 290T346 293H228V132Z"  />
<glyph unicode="C" horiz-adv-x="685" d="M535 524Q512 552 479 567T401 582Q357 582 320 565T255 518T212 445T196 354Q196 304 211 263T254 191T317 143T396 126Q444 126 481 146T542 202L672 105Q627 42 558 12T416 -18Q333 -18 263 8T142 82T63 200T34 354Q34 439 62 508T142 625T263 700T416 726Q446 726 478 721T542 703T603 671T655 622L535 524Z"  />
<glyph unicode="D" horiz-adv-x="759" d="M72 708H306Q391 708 467 689T601 628T691 517T725 352Q725 266 693 201T605 91T478 23T327 0H72V708ZM228 144H309Q363 144 409 155T490 191T543 258T563 360Q563 412 544 450T491 514T414 551T320 564H228V144Z"  />
<glyph unicode="E" horiz-adv-x="630" d="M78 708H559V564H234V432H541V288H234V144H577V0H78V708Z"  />
<glyph unicode="F" horiz-adv-x="593" d="M78 708H553V564H234V420H529V276H234V0H78V708Z"  />
<glyph unicode="G" horiz-adv-x="778" d="M713 50Q644 14 569 -2T416 -18Q333 -18 263 8T142 82T63 200T34 354Q34 439 62 508T142 625T263 700T416 726Q501 726 572 706T698 635L588 515Q556 548 516 565T416 582Q366 582 326 565T256 518T212 445T196 354Q196 304 211 263T256 191T325 143T416 126Q467 126 504 137T563 161V276H436V420H713V50Z"  />
<glyph unicode="H" horiz-adv-x="759" d="M72 708H228V444H531V708H687V0H531V306H228V0H72V708Z"  />
<glyph unicode="I" horiz-adv-x="296" d="M70 708H226V0H70V708Z"  />
<glyph unicode="J" horiz-adv-x="500" d="M438 237Q438 188 430 142T397 61T329 4T212 -18Q128 -18 70 22T-5 147L138 182Q141 156 161 138T208 120Q235 120 250 133T272 167T280 210T282 254V708H438V237Z"  />
<glyph unicode="K" horiz-adv-x="722" d="M78 708H234V414L509 708H713L398 379L740 0H522L234 336V0H78V708Z"  />
<glyph unicode="L" horiz-adv-x="537" d="M78 708H234V144H523V0H78V708Z"  />
<glyph unicode="M" horiz-adv-x="944" d="M72 708H308L471 246H473L637 708H872V0H716V543H714L528 0H409L230 543H228V0H72V708Z"  />
<glyph unicode="N" horiz-adv-x="815" d="M72 708H284L585 216H587V708H743V0H539L230 504H228V0H72V708Z"  />
<glyph unicode="O" horiz-adv-x="832" d="M34 354Q34 439 62 508T142 625T263 700T416 726Q499 726 569 700T690 626T769 508T798 354Q798 269 770 200T690 83T569 8T416 -18Q333 -18 263 8T142 82T63 200T34 354ZM196 354Q196 304 211 263T256 191T325 143T416 126Q466 126 506 143T576 190T620 262T636 354Q636 403 621 445T576 517T507 565T416 582Q366 582 326 565T256 518T212 445T196 354Z"  />
<glyph unicode="P" horiz-adv-x="630" d="M72 708H335Q390 708 439 698T524 664T582 598T604 493Q604 431 584 389T529 322T446 287T342 276H228V0H72V708ZM228 408H332Q353 408 372 412T407 425T432 451T442 493Q442 520 430 536T398 562T354 573T308 576H228V408Z"  />
<glyph unicode="Q" horiz-adv-x="852" d="M847 0H418Q335 0 265 24T143 96T63 210T34 363Q34 443 63 510T144 625T264 699T412 726Q491 726 560 699T680 624T760 510T790 363Q790 325 782 289T756 221T712 164T649 122V120H847V0ZM196 363Q196 317 213 277T259 208T328 161T412 144Q457 144 496 161T564 207T611 277T628 363Q628 409 611 449T565 518T496 565T412 582Q367 582 328 565T260 519T213 449T196 363Z"  />
<glyph unicode="R" horiz-adv-x="648" d="M72 708H346Q400 708 448 698T533 663T591 597T613 493Q613 418 574 366T460 299L640 0H453L305 283H228V0H72V708ZM228 415H320Q341 415 364 416T407 425T438 449T451 494Q451 521 440 537T412 561T373 573T330 576H228V415Z"  />
<glyph unicode="S" horiz-adv-x="574" d="M422 535Q403 559 371 570T309 582Q292 582 274 578T240 566T214 543T204 509Q204 477 228 460T288 431T367 407T445 373T506 314T530 215Q530 156 508 112T449 39T362 -4T257 -18Q188 -18 129 3T19 71L130 193Q154 161 190 144T266 126Q285 126 304 130T339 144T364 167T374 200Q374 232 350 250T288 282T208 308T128 343T67 401T42 496Q42 553 64 596T124 668T211 711T312 726Q372 726 428 709T529 652L422 535Z"  />
<glyph unicode="T" horiz-adv-x="574" d="M209 570H7V708H567V570H365V0H209V570Z"  />
<glyph unicode="U" horiz-adv-x="741" d="M669 273Q669 210 650 157T594 65T500 4T371 -18Q297 -18 241 4T148 65T91 157T72 273V708H228V279Q228 246 238 218T268 170T313 138T371 126Q402 126 428 137T473 169T502 218T513 279V708H669V273Z"  />
<glyph unicode="V" horiz-adv-x="704" d="M2 708H180L355 244H357L535 708H702L410 0H285L2 708Z"  />
<glyph unicode="W" horiz-adv-x="1000" d="M-2 708H168L281 254H283L431 708H576L723 242H725L844 708H1002L795 0H656L500 490H498L342 0H208L-2 708Z"  />
<glyph unicode="X" horiz-adv-x="722" d="M248 370L14 708H210L361 460L506 708H695L466 373L722 0H526L353 285L185 0H0L248 370Z"  />
<glyph unicode="Y" horiz-adv-x="648" d="M246 302L-20 708H174L324 443L483 708H668L402 302V0H246V302Z"  />
<glyph unicode="Z" horiz-adv-x="630" d="M35 144L394 570H48V708H583V570L231 144H595V0H35V144Z"  />
<glyph unicode="[" horiz-adv-x="296" d="M276 642H186V-66H276V-156H66V732H276V642Z"  />
<glyph unicode="\" horiz-adv-x="407" d="M297 -53L-3 726L111 761L410 -18L297 -53Z"  />
<glyph unicode="]" horiz-adv-x="296" d="M20 -66H110V642H20V732H230V-156H20V-66Z"  />
<glyph unicode="^" horiz-adv-x="666" d="M260 708H406L586 343H444L333 581L221 343H80L260 708Z"  />
<glyph unicode="_" horiz-adv-x="500" d="M0 -125V-75H500V-125H0Z"  />
<glyph unicode="`" horiz-adv-x="260" d="M232 564H100L-73 708H131L232 564Z"  />
<glyph unicode="a" horiz-adv-x="537" d="M358 61H356Q331 22 290 5T202 -12Q168 -12 137 -3T81 26T43 73T29 138Q29 180 44 209T86 257T147 286T217 302T290 308T358 309Q358 349 330 372T262 396Q225 396 195 381T140 338L60 420Q102 459 158 478T274 498Q340 498 382 482T450 433T486 355T496 247V0H358V61ZM321 213Q304 213 279 212T230 203T190 182T173 143Q173 116 196 103T244 90Q266 90 286 96T323 113T348 141T358 181V213H321Z"  />
<glyph unicode="b" horiz-adv-x="630" d="M67 756H217V434H219Q245 469 285 483T373 498Q425 498 466 477T535 419T579 337T595 239Q595 184 578 138T530 59T454 7T356 -12Q330 -12 307 -5T265 13T231 37T207 64H205V0H67V756ZM205 243Q205 188 236 154T325 120Q382 120 413 154T445 243Q445 298 414 332T325 366Q268 366 237 332T205 243Z"  />
<glyph unicode="c" horiz-adv-x="482" d="M382 329Q371 345 351 355T308 366Q251 366 220 332T188 243Q188 188 219 154T308 120Q333 120 351 131T382 157L481 53Q446 17 399 3T308 -12Q252 -12 203 6T117 57T59 138T38 243Q38 301 59 348T116 428T202 480T308 498Q351 498 398 484T481 433L382 329Z"  />
<glyph unicode="d" horiz-adv-x="630" d="M563 0H425V64H423Q414 51 400 38T366 13T323 -5T274 -12Q220 -12 176 6T101 58T52 138T35 239Q35 290 50 336T94 419T164 476T257 498Q304 498 344 484T411 434H413V756H563V0ZM425 243Q425 298 394 332T305 366Q248 366 217 332T185 243Q185 188 216 154T305 120Q362 120 393 154T425 243Z"  />
<glyph unicode="e" horiz-adv-x="574" d="M513 84Q477 38 422 13T308 -12Q252 -12 203 6T117 57T59 138T38 243Q38 301 59 348T116 428T202 480T308 498Q360 498 402 480T474 429T520 348T536 243V196H188Q197 153 227 128T301 102Q338 102 363 118T408 161L513 84ZM386 298Q387 336 361 363T294 390Q269 390 250 382T218 362T197 333T188 298H386Z"  />
<glyph unicode="f" horiz-adv-x="370" d="M105 366H6V486H105V572Q105 612 112 647T139 710T196 752T295 768Q318 768 340 766T383 759L376 632Q363 637 352 639T327 642Q291 642 273 627T255 563V486H366V366H255V0H105V366Z"  />
<glyph unicode="g" horiz-adv-x="630" d="M563 41Q563 -97 494 -168T282 -240Q217 -240 154 -226T38 -169L121 -45Q156 -74 194 -91T279 -108Q348 -108 380 -75T413 11V58H411Q385 23 347 9T274 -6Q220 -6 176 12T101 64T52 144T35 245Q35 293 50 339T94 420T164 476T257 498Q289 498 315 491T363 473T399 449T423 422H425V486H563V41ZM185 246Q185 222 194 201T219 163T257 136T305 126Q330 126 352 136T390 162T416 200T425 246Q425 270 416 291T391 329T352 356T305 366Q279 366 258 356T220 330T194 292T185 246Z"  />
<glyph unicode="h" horiz-adv-x="574" d="M203 756V420H205Q210 434 222 448T251 473T291 491T341 498Q398 498 433 481T487 432T514 359T521 268V0H371V238Q371 259 370 281T361 323T338 354T293 366Q264 366 246 356T219 328T206 288T203 242V0H53V756H203Z"  />
<glyph unicode="i" horiz-adv-x="260" d="M55 486H205V0H55V486ZM43 639Q43 675 68 700T130 726Q166 726 191 701T217 639Q217 603 192 578T130 552Q94 552 69 577T43 639Z"  />
<glyph unicode="j" horiz-adv-x="260" d="M205 -36Q205 -83 196 -120T166 -184T111 -225T25 -240Q8 -240 -10 -239T-45 -232L-37 -99Q-19 -108 2 -108Q21 -108 32 -98T48 -73T54 -41T55 -10V486H205V-36ZM43 639Q43 675 68 700T130 726Q166 726 191 701T217 639Q217 603 192 578T130 552Q94 552 69 577T43 639Z"  />
<glyph unicode="k" horiz-adv-x="556" d="M53 756H203V294L369 486H553L360 267L558 0H369L205 246H203V0H53V756Z"  />
<glyph unicode="l" horiz-adv-x="260" d="M55 756H205V0H55V756Z"  />
<glyph unicode="m" horiz-adv-x="870" d="M53 486H197V420H199Q206 434 219 448T250 473T291 491T341 498Q392 498 431 477T491 411Q517 458 554 478T645 498Q694 498 727 482T780 437T808 370T817 287V0H667V283Q667 317 653 341T601 366Q575 366 558 358T530 334T515 299T510 257V0H360V257Q360 270 359 289T352 325T333 354T293 366Q264 366 246 356T219 328T206 288T203 242V0H53V486Z"  />
<glyph unicode="n" horiz-adv-x="574" d="M53 486H197V420H199Q206 434 219 448T250 473T291 491T341 498Q398 498 433 481T487 432T514 359T521 268V0H371V238Q371 259 370 281T361 323T338 354T293 366Q264 366 246 356T219 328T206 288T203 242V0H53V486Z"  />
<glyph unicode="o" horiz-adv-x="610" d="M35 243Q35 301 56 348T113 428T199 480T305 498Q361 498 410 480T496 429T554 348T575 243Q575 185 554 138T497 58T411 6T305 -12Q249 -12 200 6T114 57T56 138T35 243ZM185 243Q185 188 216 154T305 120Q362 120 393 154T425 243Q425 298 394 332T305 366Q248 366 217 332T185 243Z"  />
<glyph unicode="p" horiz-adv-x="630" d="M67 486H205V422H207Q216 435 230 448T264 473T307 491T356 498Q410 498 454 480T529 428T578 348T595 247Q595 196 580 150T536 67T466 10T373 -12Q326 -12 286 2T219 52H217V-228H67V486ZM205 243Q205 188 236 154T325 120Q382 120 413 154T445 243Q445 298 414 332T325 366Q268 366 237 332T205 243Z"  />
<glyph unicode="q" horiz-adv-x="630" d="M563 -228H413V52H411Q385 17 345 3T257 -12Q205 -12 164 9T95 67T51 149T35 247Q35 302 52 348T100 427T176 479T274 498Q299 498 322 491T365 473T399 449T423 422H425V486H563V-228ZM425 243Q425 298 394 332T305 366Q248 366 217 332T185 243Q185 188 216 154T305 120Q362 120 393 154T425 243Z"  />
<glyph unicode="r" horiz-adv-x="407" d="M53 486H203V408H205Q229 453 262 475T345 498Q358 498 371 497T395 493V356Q379 361 364 363T331 366Q288 366 263 354T225 321T207 269T203 203V0H53V486Z"  />
<glyph unicode="s" horiz-adv-x="463" d="M328 343Q295 384 241 384Q222 384 204 375T186 344Q186 326 204 318T251 303T312 289T373 265T420 222T439 148Q439 101 419 71T366 22T294 -4T215 -12Q164 -12 112 2T24 54L115 155Q136 129 161 116T221 102Q247 102 268 109T289 137Q289 156 271 165T224 181T163 195T102 218T55 260T36 334Q36 377 53 408T99 459T165 488T240 498Q288 498 337 484T420 434L328 343Z"  />
<glyph unicode="t" horiz-adv-x="407" d="M384 366H252V204Q252 184 254 168T263 139T284 121T323 114Q335 114 354 116T384 128V3Q359 -6 332 -9T279 -12Q241 -12 209 -4T153 21T116 67T102 135V366H6V486H102V630H252V486H384V366Z"  />
<glyph unicode="u" horiz-adv-x="574" d="M521 0H377V66H375Q367 52 355 38T324 13T283 -5T233 -12Q176 -12 141 5T86 54T60 127T53 218V486H203V248Q203 227 204 205T213 163T236 132T281 120Q310 120 328 130T355 158T368 198T371 244V486H521V0Z"  />
<glyph unicode="v" horiz-adv-x="556" d="M2 486H164L287 156H289L403 486H554L362 0H203L2 486Z"  />
<glyph unicode="w" horiz-adv-x="833" d="M-5 486H155L254 181H256L339 486H503L593 181H595L686 486H838L665 0H517L416 323H414L324 0H173L-5 486Z"  />
<glyph unicode="x" horiz-adv-x="556" d="M184 260L22 486H199L285 354L368 486H535L377 260L564 0H387L281 162L167 0H-8L184 260Z"  />
<glyph unicode="y" horiz-adv-x="556" d="M333 -79Q318 -118 304 -148T269 -198T214 -229T127 -240Q69 -240 15 -222L35 -99Q69 -114 105 -114Q130 -114 146 -109T172 -93T190 -67T205 -32L216 -4L3 486H165L290 165H292L399 486H553L333 -79Z"  />
<glyph unicode="z" horiz-adv-x="500" d="M34 150L286 366H40V486H460V342L196 120H466V0H34V150Z"  />
<glyph unicode="{" horiz-adv-x="370" d="M356 -156H251Q224 -156 201 -148T160 -122T132 -77T122 -10V162Q122 185 109 199T77 220T41 229T14 231V345Q23 345 41 347T77 356T108 377T122 414V587Q122 626 131 653T158 698T199 724T251 732H356V618H307Q284 618 271 612T252 597T244 576T242 554V393Q242 358 232 338T208 308T176 294T142 289V287Q158 286 175 283T207 270T232 239T242 184V22Q242 12 243 1T251 -20T271 -36T307 -42H356V-156Z"  />
<glyph unicode="|" horiz-adv-x="222" d="M174 750V-250H48V750H174Z"  />
<glyph unicode="}" horiz-adv-x="370" d="M14 732H122Q147 732 170 724T210 698T238 653T248 586V414Q248 391 261 377T291 356T327 347T356 345V231Q345 231 327 229T292 220T261 199T248 162V-11Q248 -50 238 -77T211 -122T171 -148T119 -156H14V-42H63Q86 -42 99 -36T118 -21T126 0T128 22V183Q128 218 138 238T162 268T194 282T228 287V289Q212 290 195 293T163 306T138 337T128 392V554Q128 564 127 575T119 596T99 612T63 618H14V732Z"  />
<glyph unicode="~" horiz-adv-x="666" d="M564 292Q556 276 545 261T518 233T484 214T439 206Q413 206 385 215T328 238Q300 250 273 262T226 274Q211 274 199 268T176 252T156 230T138 206L102 314Q110 330 121 345T148 373T182 392T227 400Q253 400 281 391T338 368Q366 356 393 344T440 332Q455 332 467 338T490 354T510 376T528 400L564 292Z"  />
<glyph unicode="&#xA0;" horiz-adv-x="296" />
<glyph unicode="&#xA1;" horiz-adv-x="444" d="M147 252H297V-222H147V252ZM314 400Q314 381 307 364T288 335T258 315T222 308Q203 308 186 315T157 334T137 364T130 400Q130 419 137 436T156 465T186 485T222 492Q241 492 258 485T287 466T307 436T314 400Z"  />
<glyph unicode="&#xA2;" horiz-adv-x="592" d="M310 -12Q257 -9 214 12T140 67T93 146T76 243Q76 296 92 340T139 417T213 471T310 498V564H370V498Q421 498 462 484T542 436L446 334Q426 354 407 363T370 372V114Q376 114 383 115T401 120T424 133T453 157L544 50Q525 32 502 20T456 1T410 -9T370 -12V-81H310V-12ZM310 372Q263 363 242 327T220 244Q220 198 241 163T310 114V372Z"  />
<glyph unicode="&#xA3;" horiz-adv-x="592" d="M48 114H144V312H48V414H144V485Q144 530 160 572T207 647T285 700T392 720Q449 720 504 705T601 652L501 545Q481 565 456 576T410 588Q377 588 355 577T319 549T300 509T294 463V414H450V312H294V114H547V0H48V114Z"  />
<glyph unicode="&#xA4;" horiz-adv-x="592" d="M85 202Q62 234 49 272T36 354Q36 397 49 435T85 506L36 555L96 614L145 566Q177 589 215 601T296 614Q339 614 377 602T447 566L496 614L556 555L507 506Q556 439 556 354Q556 269 507 202L556 153L496 94L447 142Q415 119 377 107T296 94Q253 94 215 106T145 142L96 94L36 153L85 202ZM168 354Q168 326 178 302T205 259T246 231T296 220Q323 220 346 230T386 259T414 301T424 354Q424 382 414 406T387 449T346 477T296 488Q269 488 246 478T206 449T178 407T168 354Z"  />
<glyph unicode="&#xA5;" horiz-adv-x="592" d="M218 158H49V254H218V302L206 322H49V418H149L-36 708H146L296 444L446 708H628L443 418H543V322H386L374 302V254H543V158H374V0H218V158Z"  />
<glyph unicode="&#xA6;" horiz-adv-x="222" d="M174 675V325H48V675H174ZM174 175V-175H48V175H174Z"  />
<glyph unicode="&#xA7;" horiz-adv-x="592" d="M391 545Q380 574 355 590T299 606Q275 606 255 593T234 553Q234 528 257 511T315 479T390 449T465 411T523 358T546 281Q546 239 522 204T462 151Q488 130 502 99T517 32Q517 -17 494 -52T434 -109T355 -141T271 -151Q234 -151 199 -145T134 -124T80 -85T38 -25L166 38Q170 20 181 7T208 -14T240 -27T275 -31Q287 -31 301 -29T327 -20T347 -4T355 21Q355 45 333 60T277 90T205 120T132 157T77 212T54 293Q54 344 76 379T141 441Q112 461 95 490T78 556Q78 600 97 632T148 685T217 716T293 726Q325 726 358 721T421 703T477 669T517 617L391 545ZM374 192Q408 212 408 253Q408 267 402 278T387 298T366 313T343 325L227 380Q192 360 192 321Q192 303 199 291T218 269T244 252T272 239L374 192Z"  />
<glyph unicode="&#xA8;" horiz-adv-x="260" d="M25 558Q7 558 -8 565T-34 584T-51 611T-58 644Q-58 660 -52 675T-34 701T-9 719T23 726Q58 726 84 703T110 644Q110 608 86 583T25 558ZM233 558Q215 558 200 565T174 584T157 611T150 644Q150 660 156 675T174 701T199 719T231 726Q266 726 292 703T318 644Q318 608 294 583T233 558Z"  />
<glyph unicode="&#xA9;" horiz-adv-x="800" d="M588 300Q583 261 567 232T526 183T473 153T410 143Q363 143 326 159T264 205T225 273T211 357Q211 403 224 441T261 508T323 551T408 567Q442 567 472 558T526 531T566 484T588 419H494Q487 451 465 464T416 477Q367 477 343 445T319 359Q319 303 344 268T414 233Q446 233 469 248T494 300H588ZM28 354Q28 431 57 498T137 616T255 696T400 726Q477 726 544 697T662 617T742 499T772 354Q772 277 743 210T663 92T545 12T400 -18Q323 -18 256 11T138 91T58 209T28 354ZM130 354Q130 296 151 245T209 155T295 95T400 72Q456 72 505 94T591 155T649 244T670 354Q670 412 649 463T591 553T505 613T400 636Q344 636 295 614T209 553T151 464T130 354Z"  />
<glyph unicode="&#xAA;" horiz-adv-x="349" d="M230 468H228Q217 445 191 435T135 425Q113 425 93 430T57 447T32 475T23 514Q23 552 45 573T98 604T166 617T230 619Q230 637 215 651T174 666Q150 666 131 656T95 630L43 679Q70 702 107 714T182 726Q225 726 252 716T296 688T319 642T326 579V431H230V468ZM236 559H218Q207 559 191 558T161 553T136 541T125 518Q125 501 138 496T168 491Q197 491 216 507T236 540V559Z"  />
<glyph unicode="&#xAB;" horiz-adv-x="538" d="M152 249L268 76L177 15L18 249L177 483L268 422L152 249ZM394 249L510 76L419 15L260 249L419 483L510 422L394 249Z"  />
<glyph unicode="&#xAC;" horiz-adv-x="666" d="M481 336H59V462H607V142H481V336Z"  />
<glyph unicode="&#xAD;" horiz-adv-x="296" d="M271 189H25V309H271V189Z"  />
<glyph unicode="&#xAE;" horiz-adv-x="800" d="M257 553H395Q411 553 439 551T494 537T541 500T561 427Q561 397 553 378T533 346T504 327T470 318L570 163H465L376 313H359V163H257V553ZM358 391H399Q408 391 418 392T438 397T453 409T459 433Q459 448 453 456T438 469T419 474T399 475H358V391ZM28 354Q28 431 57 498T137 616T255 696T400 726Q477 726 544 697T662 617T742 499T772 354Q772 277 743 210T663 92T545 12T400 -18Q323 -18 256 11T138 91T58 209T28 354ZM130 354Q130 296 151 245T209 155T295 95T400 72Q456 72 505 94T591 155T649 244T670 354Q670 412 649 463T591 553T505 613T400 636Q344 636 295 614T209 553T151 464T130 354Z"  />
<glyph unicode="&#xAF;" horiz-adv-x="260" d="M300 591H-40V687H300V591Z"  />
<glyph unicode="&#xB0;" horiz-adv-x="400" d="M200 460Q237 460 262 485T288 548Q288 585 263 610T200 636Q163 636 138 611T112 548Q112 511 137 486T200 460ZM200 376Q164 376 133 389T79 426T42 481T28 548Q28 584 41 615T78 669T133 706T200 720Q236 720 267 707T321 670T358 615T372 548Q372 512 359 481T322 427T267 390T200 376Z"  />
<glyph unicode="&#xB1;" horiz-adv-x="666" d="M59 449H270V577H396V449H607V323H396V195H270V323H59V449ZM59 155H607V29H59V155Z"  />
<glyph unicode="&#xB2;" horiz-adv-x="385" d="M24 378L210 536Q224 548 238 562T253 591Q253 612 235 621T194 630Q165 630 148 615T128 576L26 582Q31 653 79 686T199 720Q234 720 263 712T315 689T349 652T361 600Q361 574 357 557T345 527T326 504T300 483L160 375V373H361V289H24V378Z"  />
<glyph unicode="&#xB3;" horiz-adv-x="385" d="M143 552H177Q191 552 204 553T228 560T245 574T251 597Q251 613 236 621T195 630Q171 630 154 619T131 586L21 606Q38 670 85 695T195 720Q227 720 257 713T309 692T345 657T359 606Q359 571 338 546T276 513V511Q320 506 344 477T368 411Q368 379 354 355T316 315T260 291T192 283Q126 283 79 310T17 401L126 423Q131 400 147 387T192 373Q221 373 240 384T260 421Q260 438 252 447T231 461T202 467T168 468H143V552Z"  />
<glyph unicode="&#xB4;" horiz-adv-x="260" d="M131 708H335L162 564H30L131 708Z"  />
<glyph unicode="&#xB5;" horiz-adv-x="574" d="M521 0H377V66H375Q367 52 355 38T324 13T283 -5T233 -12Q216 -12 203 -9V-228H53V486H203V248Q203 227 204 205T213 163T236 132T281 120Q310 120 328 130T355 158T368 198T371 244V486H521V0Z"  />
<glyph unicode="&#xB6;" horiz-adv-x="620" d="M236 359Q127 359 70 404T13 530Q13 584 32 618T84 673T162 700T259 708H561V-133H453V612H344V-133H236V359Z"  />
<glyph unicode="&#xB7;" horiz-adv-x="296" d="M56 283Q56 302 63 319T82 348T112 368T148 375Q167 375 184 368T213 349T233 319T240 283Q240 264 233 247T214 218T184 198T148 191Q129 191 112 198T83 217T63 247T56 283Z"  />
<glyph unicode="&#xB8;" horiz-adv-x="260" d="M127 -60Q149 -60 171 -62T212 -73T241 -98T253 -143Q253 -170 239 -189T203 -219T157 -235T114 -240Q84 -240 50 -232T-11 -210L14 -163Q26 -168 45 -174T91 -180Q103 -180 114 -179T135 -174T151 -164T157 -148Q157 -130 140 -122T107 -114Q90 -114 71 -122L39 -93L101 0H168L127 -60Z"  />
<glyph unicode="&#xB9;" horiz-adv-x="385" d="M183 606L94 531L36 597L195 714H291V289H183V606Z"  />
<glyph unicode="&#xBA;" horiz-adv-x="397" d="M23 575Q23 609 36 637T73 684T129 715T198 726Q235 726 267 715T323 685T360 637T374 575Q374 539 361 512T323 465T267 435T198 425Q161 425 129 435T74 464T37 511T23 575ZM125 575Q126 548 145 529T198 509Q232 509 252 528T272 575Q272 603 252 622T198 642Q164 642 145 623T125 575Z"  />
<glyph unicode="&#xBB;" horiz-adv-x="538" d="M386 249L270 422L361 483L520 249L361 15L270 76L386 249ZM144 249L28 422L119 483L278 249L119 15L28 76L144 249Z"  />
<glyph unicode="&#xBC;" horiz-adv-x="889" d="M716 85H507V163L706 425H824V169H881V85H824V0H716V85ZM716 305H714L615 169H716V305ZM155 606L66 531L8 597L167 714H263V289H155V606ZM594 740L678 693L265 -32L189 11L594 740Z"  />
<glyph unicode="&#xBD;" horiz-adv-x="889" d="M155 606L66 531L8 597L167 714H263V289H155V606ZM544 89L730 247Q744 259 758 273T773 302Q773 323 755 332T714 341Q685 341 668 326T648 287L546 293Q551 364 599 397T719 431Q754 431 783 423T835 400T869 363T881 311Q881 285 877 268T865 238T846 215T820 194L680 86V84H881V0H544V89ZM594 740L678 693L265 -32L189 11L594 740Z"  />
<glyph unicode="&#xBE;" horiz-adv-x="889" d="M130 552H164Q178 552 191 553T215 560T232 574T238 597Q238 613 223 621T182 630Q158 630 141 619T118 586L9 606Q17 638 33 659T72 694T123 714T182 720Q214 720 244 713T296 692T332 657T346 606Q346 571 325 546T263 513V511Q307 506 331 477T355 411Q355 379 341 355T303 315T247 291T179 283Q113 283 66 310T4 401L113 423Q118 400 134 387T179 373Q208 373 227 384T247 421Q247 438 239 447T218 461T189 467T155 468H130V552ZM720 85H511V163L710 425H828V169H885V85H828V0H720V85ZM720 305H718L619 169H720V305ZM618 740L702 693L289 -32L213 11L618 740Z"  />
<glyph unicode="&#xBF;" horiz-adv-x="556" d="M340 208Q340 178 332 157T305 118Q277 91 254 71T213 34T187 1T177 -32Q177 -65 197 -83T249 -102Q296 -102 320 -76T348 -13L502 -23Q491 -129 424 -184T252 -240Q206 -240 165 -228T94 -190T45 -128T27 -43Q27 -15 33 9T53 56T91 102T151 154Q174 172 182 189T190 223V252H340V208ZM357 400Q357 381 350 364T331 335T301 315T265 308Q246 308 229 315T200 334T180 364T173 400Q173 419 180 436T199 465T229 485T265 492Q284 492 301 485T330 466T350 436T357 400Z"  />
<glyph unicode="&#xC0;" horiz-adv-x="741" d="M305 708H434L742 0H566L505 150H230L171 0H-1L305 708ZM365 502L279 282H452L365 502ZM473 760H341L168 904H372L473 760Z"  />
<glyph unicode="&#xC1;" horiz-adv-x="741" d="M305 708H434L742 0H566L505 150H230L171 0H-1L305 708ZM365 502L279 282H452L365 502ZM372 904H576L403 760H271L372 904Z"  />
<glyph unicode="&#xC2;" horiz-adv-x="741" d="M305 708H434L742 0H566L505 150H230L171 0H-1L305 708ZM365 502L279 282H452L365 502ZM432 760L369 838L307 760H172L291 904H454L570 760H432Z"  />
<glyph unicode="&#xC3;" horiz-adv-x="741" d="M305 708H434L742 0H566L505 150H230L171 0H-1L305 708ZM365 502L279 282H452L365 502ZM175 766Q179 791 189 816T214 860T252 892T302 904Q327 904 347 898T389 883Q403 878 416 873T445 868Q462 868 472 878T489 904H567Q562 875 553 850T529 807T491 777T437 766Q415 766 396 772T359 787Q342 795 327 801T296 808Q279 808 269 794T254 766H175Z"  />
<glyph unicode="&#xC4;" horiz-adv-x="741" d="M305 708H434L742 0H566L505 150H230L171 0H-1L305 708ZM365 502L279 282H452L365 502ZM266 754Q248 754 233 761T207 780T190 807T183 840Q183 856 189 871T207 897T232 915T264 922Q299 922 325 899T351 840Q351 804 327 779T266 754ZM474 754Q456 754 441 761T415 780T398 807T391 840Q391 856 397 871T415 897T440 915T472 922Q507 922 533 899T559 840Q559 804 535 779T474 754Z"  />
<glyph unicode="&#xC5;" horiz-adv-x="741" d="M305 708H434L742 0H566L505 150H230L171 0H-1L305 708ZM365 502L279 282H452L365 502ZM371 731Q348 731 328 740T293 764T269 799T260 842Q260 864 269 884T293 920T328 944T371 953Q393 953 413 944T449 920T473 885T482 842Q482 819 473 799T449 764T414 740T371 731ZM320 842Q320 821 335 806T371 791Q392 791 407 806T422 842Q422 863 407 878T371 893Q350 893 335 878T320 842Z"  />
<glyph unicode="&#xC6;" horiz-adv-x="1037" d="M534 150H271L176 0H-15L434 708H972V564H690V432H948V288H690V144H984V0H534V150ZM534 564H517L338 282H534V564Z"  />
<glyph unicode="&#xC7;" horiz-adv-x="685" d="M535 524Q512 552 479 567T401 582Q357 582 320 565T255 518T212 445T196 354Q196 304 211 263T254 191T317 143T396 126Q444 126 481 146T542 202L672 105Q627 42 558 12T416 -18Q411 -18 407 -18T397 -17L368 -60Q390 -60 412 -62T453 -73T482 -98T494 -143Q494 -170 480 -189T444 -219T398 -235T355 -240Q325 -240 291 -232T230 -210L255 -163Q267 -168 286 -174T332 -180Q344 -180 355 -179T376 -174T392 -164T398 -148Q398 -130 381 -122T348 -114Q331 -114 312 -122L280 -93L334 -11Q267 1 212 31T118 109T56 218T34 354Q34 439 62 508T142 625T263 700T416 726Q446 726 478 721T542 703T603 671T655 622L535 524Z"  />
<glyph unicode="&#xC8;" horiz-adv-x="630" d="M78 708H559V564H234V432H541V288H234V144H577V0H78V708ZM417 760H285L112 904H316L417 760Z"  />
<glyph unicode="&#xC9;" horiz-adv-x="630" d="M78 708H559V564H234V432H541V288H234V144H577V0H78V708ZM316 904H520L347 760H215L316 904Z"  />
<glyph unicode="&#xCA;" horiz-adv-x="630" d="M78 708H559V564H234V432H541V288H234V144H577V0H78V708ZM376 760L313 838L251 760H116L235 904H398L514 760H376Z"  />
<glyph unicode="&#xCB;" horiz-adv-x="630" d="M78 708H559V564H234V432H541V288H234V144H577V0H78V708ZM210 754Q192 754 177 761T151 780T134 807T127 840Q127 856 133 871T151 897T176 915T208 922Q243 922 269 899T295 840Q295 804 271 779T210 754ZM418 754Q400 754 385 761T359 780T342 807T335 840Q335 856 341 871T359 897T384 915T416 922Q451 922 477 899T503 840Q503 804 479 779T418 754Z"  />
<glyph unicode="&#xCC;" horiz-adv-x="296" d="M70 708H226V0H70V708ZM250 760H118L-55 904H149L250 760Z"  />
<glyph unicode="&#xCD;" horiz-adv-x="296" d="M70 708H226V0H70V708ZM149 904H353L180 760H48L149 904Z"  />
<glyph unicode="&#xCE;" horiz-adv-x="296" d="M70 708H226V0H70V708ZM209 760L146 838L84 760H-51L68 904H231L347 760H209Z"  />
<glyph unicode="&#xCF;" horiz-adv-x="296" d="M70 708H226V0H70V708ZM43 754Q25 754 10 761T-16 780T-33 807T-40 840Q-40 856 -34 871T-16 897T9 915T41 922Q76 922 102 899T128 840Q128 804 104 779T43 754ZM251 754Q233 754 218 761T192 780T175 807T168 840Q168 856 174 871T192 897T217 915T249 922Q284 922 310 899T336 840Q336 804 312 779T251 754Z"  />
<glyph unicode="&#xD0;" horiz-adv-x="759" d="M228 420H426V318H228V144H309Q363 144 409 155T490 191T543 258T563 360Q563 412 544 450T491 514T414 551T320 564H228V420ZM72 318H12V420H72V708H306Q391 708 467 689T601 628T691 517T725 352Q725 266 693 201T605 91T478 23T327 0H72V318Z"  />
<glyph unicode="&#xD1;" horiz-adv-x="815" d="M72 708H284L585 216H587V708H743V0H539L230 504H228V0H72V708ZM212 766Q216 791 226 816T251 860T289 892T339 904Q364 904 384 898T426 883Q440 878 453 873T482 868Q499 868 509 878T526 904H604Q599 875 590 850T566 807T528 777T474 766Q452 766 433 772T396 787Q379 795 364 801T333 808Q316 808 306 794T291 766H212Z"  />
<glyph unicode="&#xD2;" horiz-adv-x="832" d="M34 354Q34 439 62 508T142 625T263 700T416 726Q499 726 569 700T690 626T769 508T798 354Q798 269 770 200T690 83T569 8T416 -18Q333 -18 263 8T142 82T63 200T34 354ZM196 354Q196 304 211 263T256 191T325 143T416 126Q466 126 506 143T576 190T620 262T636 354Q636 403 621 445T576 517T507 565T416 582Q366 582 326 565T256 518T212 445T196 354ZM518 760H386L213 904H417L518 760Z"  />
<glyph unicode="&#xD3;" horiz-adv-x="832" d="M34 354Q34 439 62 508T142 625T263 700T416 726Q499 726 569 700T690 626T769 508T798 354Q798 269 770 200T690 83T569 8T416 -18Q333 -18 263 8T142 82T63 200T34 354ZM196 354Q196 304 211 263T256 191T325 143T416 126Q466 126 506 143T576 190T620 262T636 354Q636 403 621 445T576 517T507 565T416 582Q366 582 326 565T256 518T212 445T196 354ZM417 904H621L448 760H316L417 904Z"  />
<glyph unicode="&#xD4;" horiz-adv-x="832" d="M34 354Q34 439 62 508T142 625T263 700T416 726Q499 726 569 700T690 626T769 508T798 354Q798 269 770 200T690 83T569 8T416 -18Q333 -18 263 8T142 82T63 200T34 354ZM196 354Q196 304 211 263T256 191T325 143T416 126Q466 126 506 143T576 190T620 262T636 354Q636 403 621 445T576 517T507 565T416 582Q366 582 326 565T256 518T212 445T196 354ZM477 760L414 838L352 760H217L336 904H499L615 760H477Z"  />
<glyph unicode="&#xD5;" horiz-adv-x="832" d="M34 354Q34 439 62 508T142 625T263 700T416 726Q499 726 569 700T690 626T769 508T798 354Q798 269 770 200T690 83T569 8T416 -18Q333 -18 263 8T142 82T63 200T34 354ZM196 354Q196 304 211 263T256 191T325 143T416 126Q466 126 506 143T576 190T620 262T636 354Q636 403 621 445T576 517T507 565T416 582Q366 582 326 565T256 518T212 445T196 354ZM220 766Q224 791 234 816T259 860T297 892T347 904Q372 904 392 898T434 883Q448 878 461 873T490 868Q507 868 517 878T534 904H612Q607 875 598 850T574 807T536 777T482 766Q460 766 441 772T404 787Q387 795 372 801T341 808Q324 808 314 794T299 766H220Z"  />
<glyph unicode="&#xD6;" horiz-adv-x="832" d="M34 354Q34 439 62 508T142 625T263 700T416 726Q499 726 569 700T690 626T769 508T798 354Q798 269 770 200T690 83T569 8T416 -18Q333 -18 263 8T142 82T63 200T34 354ZM196 354Q196 304 211 263T256 191T325 143T416 126Q466 126 506 143T576 190T620 262T636 354Q636 403 621 445T576 517T507 565T416 582Q366 582 326 565T256 518T212 445T196 354ZM311 754Q293 754 278 761T252 780T235 807T228 840Q228 856 234 871T252 897T277 915T309 922Q344 922 370 899T396 840Q396 804 372 779T311 754ZM519 754Q501 754 486 761T460 780T443 807T436 840Q436 856 442 871T460 897T485 915T517 922Q552 922 578 899T604 840Q604 804 580 779T519 754Z"  />
<glyph unicode="&#xD7;" horiz-adv-x="666" d="M157 570L334 395L506 569L595 483L422 303L602 130L510 37L334 213L157 36L68 122L242 303L64 475L157 570Z"  />
<glyph unicode="&#xD8;" horiz-adv-x="832" d="M127 99Q82 147 58 211T34 354Q34 439 62 508T142 625T263 700T416 726Q547 726 643 662L735 762L790 713L700 615Q747 567 772 501T798 354Q798 269 770 200T690 83T569 8T416 -18Q347 -18 288 0T183 50L90 -51L34 -3L127 99ZM539 548Q486 582 416 582Q366 582 326 565T256 518T212 445T196 354Q196 276 235 217L539 548ZM287 164Q313 146 345 136T416 126Q466 126 506 143T576 190T620 262T636 354Q636 396 625 432T592 497L287 164Z"  />
<glyph unicode="&#xD9;" horiz-adv-x="741" d="M669 273Q669 210 650 157T594 65T500 4T371 -18Q297 -18 241 4T148 65T91 157T72 273V708H228V279Q228 246 238 218T268 170T313 138T371 126Q402 126 428 137T473 169T502 218T513 279V708H669V273ZM473 760H341L168 904H372L473 760Z"  />
<glyph unicode="&#xDA;" horiz-adv-x="741" d="M669 273Q669 210 650 157T594 65T500 4T371 -18Q297 -18 241 4T148 65T91 157T72 273V708H228V279Q228 246 238 218T268 170T313 138T371 126Q402 126 428 137T473 169T502 218T513 279V708H669V273ZM372 904H576L403 760H271L372 904Z"  />
<glyph unicode="&#xDB;" horiz-adv-x="741" d="M669 273Q669 210 650 157T594 65T500 4T371 -18Q297 -18 241 4T148 65T91 157T72 273V708H228V279Q228 246 238 218T268 170T313 138T371 126Q402 126 428 137T473 169T502 218T513 279V708H669V273ZM432 760L369 838L307 760H172L291 904H454L570 760H432Z"  />
<glyph unicode="&#xDC;" horiz-adv-x="741" d="M669 273Q669 210 650 157T594 65T500 4T371 -18Q297 -18 241 4T148 65T91 157T72 273V708H228V279Q228 246 238 218T268 170T313 138T371 126Q402 126 428 137T473 169T502 218T513 279V708H669V273ZM266 754Q248 754 233 761T207 780T190 807T183 840Q183 856 189 871T207 897T232 915T264 922Q299 922 325 899T351 840Q351 804 327 779T266 754ZM474 754Q456 754 441 761T415 780T398 807T391 840Q391 856 397 871T415 897T440 915T472 922Q507 922 533 899T559 840Q559 804 535 779T474 754Z"  />
<glyph unicode="&#xDD;" horiz-adv-x="648" d="M246 302L-20 708H174L324 443L483 708H668L402 302V0H246V302ZM325 930H529L356 786H224L325 930Z"  />
<glyph unicode="&#xDE;" horiz-adv-x="630" d="M72 708H228V582H335Q390 582 439 572T524 538T582 472T604 367Q604 305 584 263T529 196T446 161T342 150H228V0H72V708ZM228 282H332Q353 282 372 286T407 299T432 325T442 367Q442 394 430 410T398 436T354 447T308 450H228V282Z"  />
<glyph unicode="&#xDF;" horiz-adv-x="630" d="M53 513Q53 768 309 768Q351 768 392 758T467 725T520 668T540 585Q540 527 516 487T438 425V423Q517 407 555 351T594 217Q594 164 576 122T527 50T452 4T356 -12Q309 -12 263 0V122Q289 114 312 114Q340 114 365 121T409 142T439 179T450 231Q450 295 411 324T313 353H293V479H305Q343 479 369 499T396 558Q396 577 389 591T368 616T339 631T305 636Q259 636 231 610T203 538V0H53V513Z"  />
<glyph unicode="&#xE0;" horiz-adv-x="537" d="M358 61H356Q331 22 290 5T202 -12Q168 -12 137 -3T81 26T43 73T29 138Q29 180 44 209T86 257T147 286T217 302T290 308T358 309Q358 349 330 372T262 396Q225 396 195 381T140 338L60 420Q102 459 158 478T274 498Q340 498 382 482T450 433T486 355T496 247V0H358V61ZM321 213Q304 213 279 212T230 203T190 182T173 143Q173 116 196 103T244 90Q266 90 286 96T323 113T348 141T358 181V213H321ZM371 564H239L66 708H270L371 564Z"  />
<glyph unicode="&#xE1;" horiz-adv-x="537" d="M358 61H356Q331 22 290 5T202 -12Q168 -12 137 -3T81 26T43 73T29 138Q29 180 44 209T86 257T147 286T217 302T290 308T358 309Q358 349 330 372T262 396Q225 396 195 381T140 338L60 420Q102 459 158 478T274 498Q340 498 382 482T450 433T486 355T496 247V0H358V61ZM321 213Q304 213 279 212T230 203T190 182T173 143Q173 116 196 103T244 90Q266 90 286 96T323 113T348 141T358 181V213H321ZM270 708H474L301 564H169L270 708Z"  />
<glyph unicode="&#xE2;" horiz-adv-x="537" d="M358 61H356Q331 22 290 5T202 -12Q168 -12 137 -3T81 26T43 73T29 138Q29 180 44 209T86 257T147 286T217 302T290 308T358 309Q358 349 330 372T262 396Q225 396 195 381T140 338L60 420Q102 459 158 478T274 498Q340 498 382 482T450 433T486 355T496 247V0H358V61ZM321 213Q304 213 279 212T230 203T190 182T173 143Q173 116 196 103T244 90Q266 90 286 96T323 113T348 141T358 181V213H321ZM330 564L267 642L205 564H70L189 708H352L468 564H330Z"  />
<glyph unicode="&#xE3;" horiz-adv-x="537" d="M358 61H356Q331 22 290 5T202 -12Q168 -12 137 -3T81 26T43 73T29 138Q29 180 44 209T86 257T147 286T217 302T290 308T358 309Q358 349 330 372T262 396Q225 396 195 381T140 338L60 420Q102 459 158 478T274 498Q340 498 382 482T450 433T486 355T496 247V0H358V61ZM321 213Q304 213 279 212T230 203T190 182T173 143Q173 116 196 103T244 90Q266 90 286 96T323 113T348 141T358 181V213H321ZM73 570Q77 595 87 620T112 664T150 696T200 708Q225 708 245 702T287 687Q301 682 314 677T343 672Q360 672 370 682T387 708H465Q460 679 451 654T427 611T389 581T335 570Q313 570 294 576T257 591Q240 599 225 605T194 612Q177 612 167 598T152 570H73Z"  />
<glyph unicode="&#xE4;" horiz-adv-x="537" d="M358 61H356Q331 22 290 5T202 -12Q168 -12 137 -3T81 26T43 73T29 138Q29 180 44 209T86 257T147 286T217 302T290 308T358 309Q358 349 330 372T262 396Q225 396 195 381T140 338L60 420Q102 459 158 478T274 498Q340 498 382 482T450 433T486 355T496 247V0H358V61ZM321 213Q304 213 279 212T230 203T190 182T173 143Q173 116 196 103T244 90Q266 90 286 96T323 113T348 141T358 181V213H321ZM164 558Q146 558 131 565T105 584T88 611T81 644Q81 660 87 675T105 701T130 719T162 726Q197 726 223 703T249 644Q249 608 225 583T164 558ZM372 558Q354 558 339 565T313 584T296 611T289 644Q289 660 295 675T313 701T338 719T370 726Q405 726 431 703T457 644Q457 608 433 583T372 558Z"  />
<glyph unicode="&#xE5;" horiz-adv-x="537" d="M358 61H356Q331 22 290 5T202 -12Q168 -12 137 -3T81 26T43 73T29 138Q29 180 44 209T86 257T147 286T217 302T290 308T358 309Q358 349 330 372T262 396Q225 396 195 381T140 338L60 420Q102 459 158 478T274 498Q340 498 382 482T450 433T486 355T496 247V0H358V61ZM321 213Q304 213 279 212T230 203T190 182T173 143Q173 116 196 103T244 90Q266 90 286 96T323 113T348 141T358 181V213H321ZM269 545Q246 545 226 554T191 578T167 613T158 656Q158 679 167 699T191 734T226 758T269 767Q292 767 312 758T347 734T371 699T380 656Q380 633 371 613T347 578T312 554T269 545ZM218 656Q218 635 233 620T269 605Q290 605 305 620T320 656Q320 677 305 692T269 707Q248 707 233 692T218 656Z"  />
<glyph unicode="&#xE6;" horiz-adv-x="852" d="M60 420Q102 459 158 478T274 498Q317 498 358 484T432 439Q462 468 504 483T595 498Q647 498 689 480T761 429T807 348T823 243V196H475Q484 153 514 128T588 102Q625 102 650 118T695 161L800 84Q764 38 709 13T595 -12Q535 -12 484 5T401 67Q369 23 318 6T202 -12Q168 -12 137 -3T81 26T43 73T29 138Q29 177 44 204T83 249T139 276T204 291T271 297T331 298H349Q349 342 326 369T262 396Q225 396 195 381T140 338L60 420ZM173 139Q173 122 180 113T199 98T224 92T250 90Q304 90 326 119T349 196H331Q314 196 287 195T235 189T191 172T173 139ZM673 298Q674 336 648 363T581 390Q556 390 537 382T505 362T484 333T475 298H673Z"  />
<glyph unicode="&#xE7;" horiz-adv-x="482" d="M382 329Q371 345 351 355T308 366Q251 366 220 332T188 243Q188 188 219 154T308 120Q333 120 351 131T382 157L481 53Q446 17 399 3T308 -12Q301 -12 299 -11L266 -60Q288 -60 310 -62T351 -73T380 -98T392 -143Q392 -170 378 -189T342 -219T296 -235T253 -240Q223 -240 189 -232T128 -210L153 -163Q165 -168 184 -174T230 -180Q242 -180 253 -179T274 -174T290 -164T296 -148Q296 -130 279 -122T246 -114Q229 -114 210 -122L178 -93L238 -3Q194 6 158 27T95 80T53 153T38 243Q38 301 59 348T116 428T202 480T308 498Q351 498 398 484T481 433L382 329Z"  />
<glyph unicode="&#xE8;" horiz-adv-x="574" d="M513 84Q477 38 422 13T308 -12Q252 -12 203 6T117 57T59 138T38 243Q38 301 59 348T116 428T202 480T308 498Q360 498 402 480T474 429T520 348T536 243V196H188Q197 153 227 128T301 102Q338 102 363 118T408 161L513 84ZM386 298Q387 336 361 363T294 390Q269 390 250 382T218 362T197 333T188 298H386ZM389 564H257L84 708H288L389 564Z"  />
<glyph unicode="&#xE9;" horiz-adv-x="574" d="M513 84Q477 38 422 13T308 -12Q252 -12 203 6T117 57T59 138T38 243Q38 301 59 348T116 428T202 480T308 498Q360 498 402 480T474 429T520 348T536 243V196H188Q197 153 227 128T301 102Q338 102 363 118T408 161L513 84ZM386 298Q387 336 361 363T294 390Q269 390 250 382T218 362T197 333T188 298H386ZM288 708H492L319 564H187L288 708Z"  />
<glyph unicode="&#xEA;" horiz-adv-x="574" d="M513 84Q477 38 422 13T308 -12Q252 -12 203 6T117 57T59 138T38 243Q38 301 59 348T116 428T202 480T308 498Q360 498 402 480T474 429T520 348T536 243V196H188Q197 153 227 128T301 102Q338 102 363 118T408 161L513 84ZM386 298Q387 336 361 363T294 390Q269 390 250 382T218 362T197 333T188 298H386ZM348 564L285 642L223 564H88L207 708H370L486 564H348Z"  />
<glyph unicode="&#xEB;" horiz-adv-x="574" d="M513 84Q477 38 422 13T308 -12Q252 -12 203 6T117 57T59 138T38 243Q38 301 59 348T116 428T202 480T308 498Q360 498 402 480T474 429T520 348T536 243V196H188Q197 153 227 128T301 102Q338 102 363 118T408 161L513 84ZM386 298Q387 336 361 363T294 390Q269 390 250 382T218 362T197 333T188 298H386ZM182 558Q164 558 149 565T123 584T106 611T99 644Q99 660 105 675T123 701T148 719T180 726Q215 726 241 703T267 644Q267 608 243 583T182 558ZM390 558Q372 558 357 565T331 584T314 611T307 644Q307 660 313 675T331 701T356 719T388 726Q423 726 449 703T475 644Q475 608 451 583T390 558Z"  />
<glyph unicode="&#xEC;" horiz-adv-x="260" d="M55 486H205V0H55V486ZM232 564H100L-73 708H131L232 564Z"  />
<glyph unicode="&#xED;" horiz-adv-x="260" d="M55 486H205V0H55V486ZM131 708H335L162 564H30L131 708Z"  />
<glyph unicode="&#xEE;" horiz-adv-x="260" d="M55 486H205V0H55V486ZM191 564L128 642L66 564H-69L50 708H213L329 564H191Z"  />
<glyph unicode="&#xEF;" horiz-adv-x="260" d="M55 486H205V0H55V486ZM25 558Q7 558 -8 565T-34 584T-51 611T-58 644Q-58 660 -52 675T-34 701T-9 719T23 726Q58 726 84 703T110 644Q110 608 86 583T25 558ZM233 558Q215 558 200 565T174 584T157 611T150 644Q150 660 156 675T174 701T199 719T231 726Q266 726 292 703T318 644Q318 608 294 583T233 558Z"  />
<glyph unicode="&#xF0;" horiz-adv-x="610" d="M526 710L403 659Q427 634 456 599T512 518T557 413T575 284Q575 216 558 161T506 68T421 8T305 -12Q249 -12 200 6T114 57T56 138T35 243Q35 301 56 348T113 428T192 480T283 498Q309 498 335 494T381 472L383 474Q373 488 359 505T330 541T300 575T272 603L166 558L94 626L202 672Q197 677 189 684T172 700T152 717T133 731L255 801Q278 784 297 766T335 729L449 777L526 710ZM185 243Q185 188 216 154T305 120Q362 120 393 154T425 243Q425 298 394 332T305 366Q248 366 217 332T185 243Z"  />
<glyph unicode="&#xF1;" horiz-adv-x="574" d="M53 486H197V420H199Q206 434 219 448T250 473T291 491T341 498Q398 498 433 481T487 432T514 359T521 268V0H371V238Q371 259 370 281T361 323T338 354T293 366Q264 366 246 356T219 328T206 288T203 242V0H53V486ZM91 570Q95 595 105 620T130 664T168 696T218 708Q243 708 263 702T305 687Q319 682 332 677T361 672Q378 672 388 682T405 708H483Q478 679 469 654T445 611T407 581T353 570Q331 570 312 576T275 591Q258 599 243 605T212 612Q195 612 185 598T170 570H91Z"  />
<glyph unicode="&#xF2;" horiz-adv-x="610" d="M35 243Q35 301 56 348T113 428T199 480T305 498Q361 498 410 480T496 429T554 348T575 243Q575 185 554 138T497 58T411 6T305 -12Q249 -12 200 6T114 57T56 138T35 243ZM185 243Q185 188 216 154T305 120Q362 120 393 154T425 243Q425 298 394 332T305 366Q248 366 217 332T185 243ZM407 564H275L102 708H306L407 564Z"  />
<glyph unicode="&#xF3;" horiz-adv-x="610" d="M35 243Q35 301 56 348T113 428T199 480T305 498Q361 498 410 480T496 429T554 348T575 243Q575 185 554 138T497 58T411 6T305 -12Q249 -12 200 6T114 57T56 138T35 243ZM185 243Q185 188 216 154T305 120Q362 120 393 154T425 243Q425 298 394 332T305 366Q248 366 217 332T185 243ZM306 708H510L337 564H205L306 708Z"  />
<glyph unicode="&#xF4;" horiz-adv-x="610" d="M35 243Q35 301 56 348T113 428T199 480T305 498Q361 498 410 480T496 429T554 348T575 243Q575 185 554 138T497 58T411 6T305 -12Q249 -12 200 6T114 57T56 138T35 243ZM185 243Q185 188 216 154T305 120Q362 120 393 154T425 243Q425 298 394 332T305 366Q248 366 217 332T185 243ZM366 564L303 642L241 564H106L225 708H388L504 564H366Z"  />
<glyph unicode="&#xF5;" horiz-adv-x="610" d="M35 243Q35 301 56 348T113 428T199 480T305 498Q361 498 410 480T496 429T554 348T575 243Q575 185 554 138T497 58T411 6T305 -12Q249 -12 200 6T114 57T56 138T35 243ZM185 243Q185 188 216 154T305 120Q362 120 393 154T425 243Q425 298 394 332T305 366Q248 366 217 332T185 243ZM109 570Q113 595 123 620T148 664T186 696T236 708Q261 708 281 702T323 687Q337 682 350 677T379 672Q396 672 406 682T423 708H501Q496 679 487 654T463 611T425 581T371 570Q349 570 330 576T293 591Q276 599 261 605T230 612Q213 612 203 598T188 570H109Z"  />
<glyph unicode="&#xF6;" horiz-adv-x="610" d="M35 243Q35 301 56 348T113 428T199 480T305 498Q361 498 410 480T496 429T554 348T575 243Q575 185 554 138T497 58T411 6T305 -12Q249 -12 200 6T114 57T56 138T35 243ZM185 243Q185 188 216 154T305 120Q362 120 393 154T425 243Q425 298 394 332T305 366Q248 366 217 332T185 243ZM200 558Q182 558 167 565T141 584T124 611T117 644Q117 660 123 675T141 701T166 719T198 726Q233 726 259 703T285 644Q285 608 261 583T200 558ZM408 558Q390 558 375 565T349 584T332 611T325 644Q325 660 331 675T349 701T374 719T406 726Q441 726 467 703T493 644Q493 608 469 583T408 558Z"  />
<glyph unicode="&#xF7;" horiz-adv-x="666" d="M59 366H607V240H59V366ZM247 114Q247 132 254 147T272 174T299 193T333 200Q351 200 366 193T393 175T412 148T419 114Q419 96 412 81T394 54T367 35T333 28Q315 28 300 35T273 53T254 80T247 114ZM247 492Q247 510 254 525T272 552T299 571T333 578Q351 578 366 571T393 553T412 526T419 492Q419 474 412 459T394 432T367 413T333 406Q315 406 300 413T273 431T254 458T247 492Z"  />
<glyph unicode="&#xF8;" horiz-adv-x="610" d="M96 76Q67 108 51 150T35 243Q35 301 56 348T113 428T199 480T305 498Q353 498 394 485T470 449L537 516L584 471L518 405Q545 373 560 332T575 243Q575 185 554 138T497 58T411 6T305 -12Q215 -12 146 34L73 -39L26 6L96 76ZM370 350Q343 366 305 366Q248 366 217 332T185 243Q185 207 200 180L370 350ZM246 134Q272 120 305 120Q362 120 393 154T425 243Q425 274 413 300L246 134Z"  />
<glyph unicode="&#xF9;" horiz-adv-x="574" d="M521 0H377V66H375Q367 52 355 38T324 13T283 -5T233 -12Q176 -12 141 5T86 54T60 127T53 218V486H203V248Q203 227 204 205T213 163T236 132T281 120Q310 120 328 130T355 158T368 198T371 244V486H521V0ZM389 564H257L84 708H288L389 564Z"  />
<glyph unicode="&#xFA;" horiz-adv-x="574" d="M521 0H377V66H375Q367 52 355 38T324 13T283 -5T233 -12Q176 -12 141 5T86 54T60 127T53 218V486H203V248Q203 227 204 205T213 163T236 132T281 120Q310 120 328 130T355 158T368 198T371 244V486H521V0ZM288 708H492L319 564H187L288 708Z"  />
<glyph unicode="&#xFB;" horiz-adv-x="574" d="M521 0H377V66H375Q367 52 355 38T324 13T283 -5T233 -12Q176 -12 141 5T86 54T60 127T53 218V486H203V248Q203 227 204 205T213 163T236 132T281 120Q310 120 328 130T355 158T368 198T371 244V486H521V0ZM348 564L285 642L223 564H88L207 708H370L486 564H348Z"  />
<glyph unicode="&#xFC;" horiz-adv-x="574" d="M521 0H377V66H375Q367 52 355 38T324 13T283 -5T233 -12Q176 -12 141 5T86 54T60 127T53 218V486H203V248Q203 227 204 205T213 163T236 132T281 120Q310 120 328 130T355 158T368 198T371 244V486H521V0ZM182 558Q164 558 149 565T123 584T106 611T99 644Q99 660 105 675T123 701T148 719T180 726Q215 726 241 703T267 644Q267 608 243 583T182 558ZM390 558Q372 558 357 565T331 584T314 611T307 644Q307 660 313 675T331 701T356 719T388 726Q423 726 449 703T475 644Q475 608 451 583T390 558Z"  />
<glyph unicode="&#xFD;" horiz-adv-x="556" d="M333 -79Q318 -118 304 -148T269 -198T214 -229T127 -240Q69 -240 15 -222L35 -99Q69 -114 105 -114Q130 -114 146 -109T172 -93T190 -67T205 -32L216 -4L3 486H165L290 165H292L399 486H553L333 -79ZM279 708H483L310 564H178L279 708Z"  />
<glyph unicode="&#xFE;" horiz-adv-x="630" d="M67 756H217V434H219Q228 449 242 460T275 480T314 493T356 498Q410 498 454 480T529 428T578 348T595 247Q595 196 580 150T536 67T466 10T373 -12Q326 -12 286 2T219 52H217V-228H67V756ZM205 243Q205 188 236 154T325 120Q382 120 413 154T445 243Q445 298 414 332T325 366Q268 366 237 332T205 243Z"  />
<glyph unicode="&#xFF;" horiz-adv-x="556" d="M333 -79Q318 -118 304 -148T269 -198T214 -229T127 -240Q69 -240 15 -222L35 -99Q69 -114 105 -114Q130 -114 146 -109T172 -93T190 -67T205 -32L216 -4L3 486H165L290 165H292L399 486H553L333 -79ZM173 558Q155 558 140 565T114 584T97 611T90 644Q90 660 96 675T114 701T139 719T171 726Q206 726 232 703T258 644Q258 608 234 583T173 558ZM381 558Q363 558 348 565T322 584T305 611T298 644Q298 660 304 675T322 701T347 719T379 726Q414 726 440 703T466 644Q466 608 442 583T381 558Z"  />
<glyph unicode="&#x100;" horiz-adv-x="741" d="M305 708H434L742 0H566L505 150H230L171 0H-1L305 708ZM365 502L279 282H452L365 502ZM535 787H195V883H535V787Z"  />
<glyph unicode="&#x101;" horiz-adv-x="537" d="M358 61H356Q331 22 290 5T202 -12Q168 -12 137 -3T81 26T43 73T29 138Q29 180 44 209T86 257T147 286T217 302T290 308T358 309Q358 349 330 372T262 396Q225 396 195 381T140 338L60 420Q102 459 158 478T274 498Q340 498 382 482T450 433T486 355T496 247V0H358V61ZM321 213Q304 213 279 212T230 203T190 182T173 143Q173 116 196 103T244 90Q266 90 286 96T323 113T348 141T358 181V213H321ZM455 591H115V687H455V591Z"  />
<glyph unicode="&#x102;" horiz-adv-x="741" d="M305 708H434L742 0H566L505 150H230L171 0H-1L305 708ZM365 502L279 282H452L365 502ZM261 904Q264 889 274 880T299 866T331 858T365 856Q404 856 431 863T470 904H549Q545 866 529 839T489 794T433 768T365 760Q330 760 298 767T240 792T199 837T181 904H261Z"  />
<glyph unicode="&#x103;" horiz-adv-x="537" d="M358 61H356Q331 22 290 5T202 -12Q168 -12 137 -3T81 26T43 73T29 138Q29 180 44 209T86 257T147 286T217 302T290 308T358 309Q358 349 330 372T262 396Q225 396 195 381T140 338L60 420Q102 459 158 478T274 498Q340 498 382 482T450 433T486 355T496 247V0H358V61ZM321 213Q304 213 279 212T230 203T190 182T173 143Q173 116 196 103T244 90Q266 90 286 96T323 113T348 141T358 181V213H321ZM181 708Q184 693 194 684T219 670T251 662T285 660Q324 660 351 667T390 708H469Q465 670 449 643T409 598T353 572T285 564Q249 564 217 571T160 596T119 641T101 708H181Z"  />
<glyph unicode="&#x104;" horiz-adv-x="741" d="M689 -198Q664 -217 638 -228T580 -240Q538 -240 507 -216T475 -147Q475 -128 483 -108T505 -68T534 -31T566 0L505 150H230L171 0H-1L305 708H434L742 0H635Q623 -12 611 -27T588 -58T572 -90T565 -122Q565 -139 577 -153T607 -168Q621 -168 635 -161T661 -145L689 -198ZM365 502L279 282H452L365 502Z"  />
<glyph unicode="&#x105;" horiz-adv-x="537" d="M358 61H356Q331 22 290 5T202 -12Q167 -12 136 -3T81 26T43 73T29 138Q29 180 45 209T87 257T147 286T217 302T290 308T358 309Q358 349 330 372T262 396Q225 396 195 381T140 338L60 420Q102 459 158 478T274 498Q340 498 382 482T450 433T486 355T496 247V0H428Q416 -12 404 -27T381 -58T365 -90T358 -122Q358 -139 370 -153T400 -168Q414 -168 428 -161T454 -145L482 -198Q457 -217 431 -228T373 -240Q331 -240 300 -216T268 -147Q268 -128 276 -108T298 -68T327 -32T358 0V61ZM321 213Q304 213 279 212T230 203T190 182T173 143Q173 116 196 103T244 90Q266 90 286 96T323 113T348 141T358 181V213H321Z"  />
<glyph unicode="&#x106;" horiz-adv-x="685" d="M535 524Q512 552 479 567T401 582Q357 582 320 565T255 518T212 445T196 354Q196 304 211 263T254 191T317 143T396 126Q444 126 481 146T542 202L672 105Q627 42 558 12T416 -18Q333 -18 263 8T142 82T63 200T34 354Q34 439 62 508T142 625T263 700T416 726Q446 726 478 721T542 703T603 671T655 622L535 524ZM393 904H597L424 760H292L393 904Z"  />
<glyph unicode="&#x107;" horiz-adv-x="482" d="M382 329Q371 345 351 355T308 366Q251 366 220 332T188 243Q188 188 219 154T308 120Q333 120 351 131T382 157L481 53Q446 17 399 3T308 -12Q252 -12 203 6T117 57T59 138T38 243Q38 301 59 348T116 428T202 480T308 498Q351 498 398 484T481 433L382 329ZM296 708H500L327 564H195L296 708Z"  />
<glyph unicode="&#x108;" horiz-adv-x="685" d="M535 524Q512 552 479 567T401 582Q357 582 320 565T255 518T212 445T196 354Q196 304 211 263T254 191T317 143T396 126Q444 126 481 146T542 202L672 105Q627 42 558 12T416 -18Q333 -18 263 8T142 82T63 200T34 354Q34 439 62 508T142 625T263 700T416 726Q446 726 478 721T542 703T603 671T655 622L535 524ZM461 760L398 838L336 760H201L320 904H483L599 760H461Z"  />
<glyph unicode="&#x109;" horiz-adv-x="482" d="M382 329Q371 345 351 355T308 366Q251 366 220 332T188 243Q188 188 219 154T308 120Q333 120 351 131T382 157L481 53Q446 17 399 3T308 -12Q252 -12 203 6T117 57T59 138T38 243Q38 301 59 348T116 428T202 480T308 498Q351 498 398 484T481 433L382 329ZM352 564L289 642L227 564H92L211 708H374L490 564H352Z"  />
<glyph unicode="&#x10A;" horiz-adv-x="685" d="M535 524Q512 552 479 567T401 582Q357 582 320 565T255 518T212 445T196 354Q196 304 211 263T254 191T317 143T396 126Q444 126 481 146T542 202L672 105Q627 42 558 12T416 -18Q333 -18 263 8T142 82T63 200T34 354Q34 439 62 508T142 625T263 700T416 726Q446 726 478 721T542 703T603 671T655 622L535 524ZM399 754Q381 754 366 761T340 780T323 807T316 840Q316 856 322 871T340 897T365 915T397 922Q432 922 458 899T484 840Q484 804 460 779T399 754Z"  />
<glyph unicode="&#x10B;" horiz-adv-x="482" d="M382 329Q371 345 351 355T308 366Q251 366 220 332T188 243Q188 188 219 154T308 120Q333 120 351 131T382 157L481 53Q446 17 399 3T308 -12Q252 -12 203 6T117 57T59 138T38 243Q38 301 59 348T116 428T202 480T308 498Q351 498 398 484T481 433L382 329ZM290 558Q272 558 257 565T231 584T214 611T207 644Q207 660 213 675T231 701T256 719T288 726Q323 726 349 703T375 644Q375 608 351 583T290 558Z"  />
<glyph unicode="&#x10C;" horiz-adv-x="685" d="M535 524Q512 552 479 567T401 582Q357 582 320 565T255 518T212 445T196 354Q196 304 211 263T254 191T317 143T396 126Q444 126 481 146T542 202L672 105Q627 42 558 12T416 -18Q333 -18 263 8T142 82T63 200T34 354Q34 439 62 508T142 625T263 700T416 726Q446 726 478 721T542 703T603 671T655 622L535 524ZM335 931L398 853L460 931H595L476 787H313L197 931H335Z"  />
<glyph unicode="&#x10D;" horiz-adv-x="482" d="M382 329Q371 345 351 355T308 366Q251 366 220 332T188 243Q188 188 219 154T308 120Q333 120 351 131T382 157L481 53Q446 17 399 3T308 -12Q252 -12 203 6T117 57T59 138T38 243Q38 301 59 348T116 428T202 480T308 498Q351 498 398 484T481 433L382 329ZM226 708L289 630L351 708H486L367 564H204L88 708H226Z"  />
<glyph unicode="&#x10E;" horiz-adv-x="759" d="M72 708H306Q391 708 467 689T601 628T691 517T725 352Q725 266 693 201T605 91T478 23T327 0H72V708ZM228 144H309Q363 144 409 155T490 191T543 258T563 360Q563 412 544 450T491 514T414 551T320 564H228V144ZM277 931L340 853L402 931H537L418 787H255L139 931H277Z"  />
<glyph unicode="&#x10F;" horiz-adv-x="630" d="M563 0H425V64H423Q414 51 400 38T366 13T323 -5T274 -12Q220 -12 176 6T101 58T52 138T35 239Q35 290 50 336T94 419T164 476T257 498Q304 498 344 484T411 434H413V756H563V0ZM425 243Q425 298 394 332T305 366Q248 366 217 332T185 243Q185 188 216 154T305 120Q362 120 393 154T425 243ZM657 708H791L711 509H613L657 708Z"  />
<glyph unicode="&#x110;" horiz-adv-x="759" d="M228 420H426V318H228V144H309Q363 144 409 155T490 191T543 258T563 360Q563 412 544 450T491 514T414 551T320 564H228V420ZM72 318H12V420H72V708H306Q391 708 467 689T601 628T691 517T725 352Q725 266 693 201T605 91T478 23T327 0H72V318Z"  />
<glyph unicode="&#x111;" horiz-adv-x="630" d="M619 561H563V0H425V64H423Q414 51 399 38T365 13T323 -5T274 -12Q220 -12 176 6T101 58T52 138T35 239Q35 290 50 336T94 419T164 476T257 498Q305 498 345 484T411 434H413V561H279V657H413V756H563V657H619V561ZM425 243Q425 298 394 332T305 366Q248 366 217 332T185 243Q185 188 216 154T305 120Q362 120 393 154T425 243Z"  />
<glyph unicode="&#x112;" horiz-adv-x="630" d="M78 708H559V564H234V432H541V288H234V144H577V0H78V708ZM494 787H154V883H494V787Z"  />
<glyph unicode="&#x113;" horiz-adv-x="574" d="M513 84Q477 38 422 13T308 -12Q252 -12 203 6T117 57T59 138T38 243Q38 301 59 348T116 428T202 480T308 498Q360 498 402 480T474 429T520 348T536 243V196H188Q197 153 227 128T301 102Q338 102 363 118T408 161L513 84ZM386 298Q387 336 361 363T294 390Q269 390 250 382T218 362T197 333T188 298H386ZM466 591H126V687H466V591Z"  />
<glyph unicode="&#x114;" horiz-adv-x="630" d="M78 708H559V564H234V432H541V288H234V144H577V0H78V708ZM220 904Q223 889 233 880T258 866T290 858T324 856Q363 856 390 863T429 904H508Q504 866 488 839T448 794T392 768T324 760Q289 760 257 767T199 792T158 837T140 904H220Z"  />
<glyph unicode="&#x115;" horiz-adv-x="574" d="M513 84Q477 38 422 13T308 -12Q252 -12 203 6T117 57T59 138T38 243Q38 301 59 348T116 428T202 480T308 498Q360 498 402 480T474 429T520 348T536 243V196H188Q197 153 227 128T301 102Q338 102 363 118T408 161L513 84ZM386 298Q387 336 361 363T294 390Q269 390 250 382T218 362T197 333T188 298H386ZM192 708Q195 693 205 684T230 670T262 662T296 660Q335 660 362 667T401 708H480Q476 670 460 643T420 598T364 572T296 564Q260 564 228 571T171 596T130 641T112 708H192Z"  />
<glyph unicode="&#x116;" horiz-adv-x="630" d="M78 708H559V564H234V432H541V288H234V144H577V0H78V708ZM331 754Q313 754 298 761T272 780T255 807T248 840Q248 856 254 871T272 897T297 915T329 922Q364 922 390 899T416 840Q416 804 392 779T331 754Z"  />
<glyph unicode="&#x117;" horiz-adv-x="574" d="M513 84Q477 38 422 13T308 -12Q252 -12 203 6T117 57T59 138T38 243Q38 301 59 348T116 428T202 480T308 498Q360 498 402 480T474 429T520 348T536 243V196H188Q197 153 227 128T301 102Q338 102 363 118T408 161L513 84ZM386 298Q387 336 361 363T294 390Q269 390 250 382T218 362T197 333T188 298H386ZM301 558Q283 558 268 565T242 584T225 611T218 644Q218 660 224 675T242 701T267 719T299 726Q334 726 360 703T386 644Q386 608 362 583T301 558Z"  />
<glyph unicode="&#x118;" horiz-adv-x="630" d="M78 708H559V564H234V432H541V288H234V144H577V0H513Q501 -12 489 -27T466 -58T450 -90T443 -122Q443 -139 455 -153T485 -168Q499 -168 513 -161T539 -145L567 -198Q542 -217 516 -228T458 -240Q416 -240 385 -216T353 -147Q353 -128 361 -108T383 -68T412 -32T443 0H78V708Z"  />
<glyph unicode="&#x119;" horiz-adv-x="574" d="M421 -198Q396 -217 370 -228T312 -240Q270 -240 239 -216T207 -147Q207 -129 213 -111T231 -76T256 -42T284 -11Q232 -7 187 12T109 65T57 143T38 243Q38 301 59 348T116 428T202 480T308 498Q360 498 402 480T474 429T520 348T536 243V196H188Q197 153 226 128T301 102Q338 102 363 118T408 161L513 84Q484 48 445 25T360 -7Q348 -19 337 -33T317 -62T303 -92T297 -122Q297 -139 309 -153T339 -168Q353 -168 367 -161T393 -145L421 -198ZM386 298Q387 336 361 363T294 390Q269 390 250 382T218 362T197 333T188 298H386Z"  />
<glyph unicode="&#x11A;" horiz-adv-x="630" d="M78 708H559V564H234V432H541V288H234V144H577V0H78V708ZM259 931L322 853L384 931H519L400 787H237L121 931H259Z"  />
<glyph unicode="&#x11B;" horiz-adv-x="574" d="M513 84Q477 38 422 13T308 -12Q252 -12 203 6T117 57T59 138T38 243Q38 301 59 348T116 428T202 480T308 498Q360 498 402 480T474 429T520 348T536 243V196H188Q197 153 227 128T301 102Q338 102 363 118T408 161L513 84ZM386 298Q387 336 361 363T294 390Q269 390 250 382T218 362T197 333T188 298H386ZM231 708L294 630L356 708H491L372 564H209L93 708H231Z"  />
<glyph unicode="&#x11C;" horiz-adv-x="778" d="M713 50Q644 14 569 -2T416 -18Q333 -18 263 8T142 82T63 200T34 354Q34 439 62 508T142 625T263 700T416 726Q501 726 572 706T698 635L588 515Q556 548 516 565T416 582Q366 582 326 565T256 518T212 445T196 354Q196 304 211 263T256 191T325 143T416 126Q467 126 504 137T563 161V276H436V420H713V50ZM473 760L410 838L348 760H213L332 904H495L611 760H473Z"  />
<glyph unicode="&#x11D;" horiz-adv-x="630" d="M563 41Q563 -97 494 -168T282 -240Q217 -240 154 -226T38 -169L121 -45Q156 -74 194 -91T279 -108Q348 -108 380 -75T413 11V58H411Q385 23 347 9T274 -6Q220 -6 176 12T101 64T52 144T35 245Q35 293 50 339T94 420T164 476T257 498Q289 498 315 491T363 473T399 449T423 422H425V486H563V41ZM185 246Q185 222 194 201T219 163T257 136T305 126Q330 126 352 136T390 162T416 200T425 246Q425 270 416 291T391 329T352 356T305 366Q279 366 258 356T220 330T194 292T185 246ZM372 564L309 642L247 564H112L231 708H394L510 564H372Z"  />
<glyph unicode="&#x11E;" horiz-adv-x="778" d="M713 50Q644 14 569 -2T416 -18Q333 -18 263 8T142 82T63 200T34 354Q34 439 62 508T142 625T263 700T416 726Q501 726 572 706T698 635L588 515Q556 548 516 565T416 582Q366 582 326 565T256 518T212 445T196 354Q196 304 211 263T256 191T325 143T416 126Q467 126 504 137T563 161V276H436V420H713V50ZM308 904Q311 889 321 880T346 866T378 858T412 856Q451 856 478 863T517 904H596Q592 866 576 839T536 794T480 768T412 760Q377 760 345 767T287 792T246 837T228 904H308Z"  />
<glyph unicode="&#x11F;" horiz-adv-x="630" d="M563 41Q563 -97 494 -168T282 -240Q217 -240 154 -226T38 -169L121 -45Q156 -74 194 -91T279 -108Q348 -108 380 -75T413 11V58H411Q385 23 347 9T274 -6Q220 -6 176 12T101 64T52 144T35 245Q35 293 50 339T94 420T164 476T257 498Q289 498 315 491T363 473T399 449T423 422H425V486H563V41ZM185 246Q185 222 194 201T219 163T257 136T305 126Q330 126 352 136T390 162T416 200T425 246Q425 270 416 291T391 329T352 356T305 366Q279 366 258 356T220 330T194 292T185 246ZM217 708Q220 693 230 684T255 670T287 662T321 660Q360 660 387 667T426 708H505Q501 670 485 643T445 598T389 572T321 564Q285 564 253 571T196 596T155 641T137 708H217Z"  />
<glyph unicode="&#x120;" horiz-adv-x="778" d="M713 50Q644 14 569 -2T416 -18Q333 -18 263 8T142 82T63 200T34 354Q34 439 62 508T142 625T263 700T416 726Q501 726 572 706T698 635L588 515Q556 548 516 565T416 582Q366 582 326 565T256 518T212 445T196 354Q196 304 211 263T256 191T325 143T416 126Q467 126 504 137T563 161V276H436V420H713V50ZM411 754Q393 754 378 761T352 780T335 807T328 840Q328 856 334 871T352 897T377 915T409 922Q444 922 470 899T496 840Q496 804 472 779T411 754Z"  />
<glyph unicode="&#x121;" horiz-adv-x="630" d="M563 41Q563 -97 494 -168T282 -240Q217 -240 154 -226T38 -169L121 -45Q156 -74 194 -91T279 -108Q348 -108 380 -75T413 11V58H411Q385 23 347 9T274 -6Q220 -6 176 12T101 64T52 144T35 245Q35 293 50 339T94 420T164 476T257 498Q289 498 315 491T363 473T399 449T423 422H425V486H563V41ZM185 246Q185 222 194 201T219 163T257 136T305 126Q330 126 352 136T390 162T416 200T425 246Q425 270 416 291T391 329T352 356T305 366Q279 366 258 356T220 330T194 292T185 246ZM320 558Q302 558 287 565T261 584T244 611T237 644Q237 660 243 675T261 701T286 719T318 726Q353 726 379 703T405 644Q405 608 381 583T320 558Z"  />
<glyph unicode="&#x122;" horiz-adv-x="778" d="M713 50Q644 14 569 -2T416 -18Q333 -18 263 8T142 82T63 200T34 354Q34 439 62 508T142 625T263 700T416 726Q501 726 572 706T698 635L588 515Q556 548 516 565T416 582Q366 582 326 565T256 518T212 445T196 354Q196 304 211 263T256 191T325 143T416 126Q467 126 504 137T563 161V276H436V420H713V50ZM365 -61H509L419 -260H301L365 -61Z"  />
<glyph unicode="&#x123;" horiz-adv-x="630" d="M563 41Q563 -97 494 -168T282 -240Q217 -240 154 -226T38 -169L121 -45Q156 -74 194 -91T279 -108Q348 -108 380 -75T413 11V58H411Q385 23 347 9T274 -6Q220 -6 176 12T101 64T52 144T35 245Q35 293 50 339T94 420T164 476T257 498Q289 498 315 491T363 473T399 449T423 422H425V486H563V41ZM185 246Q185 222 194 201T219 163T257 136T305 126Q330 126 352 136T390 162T416 200T425 246Q425 270 416 291T391 329T352 356T305 366Q279 366 258 356T220 330T194 292T185 246ZM372 584H228L318 783H436L372 584Z"  />
<glyph unicode="&#x124;" horiz-adv-x="759" d="M72 708H228V444H531V708H687V0H531V306H228V0H72V708ZM440 760L377 838L315 760H180L299 904H462L578 760H440Z"  />
<glyph unicode="&#x125;" horiz-adv-x="574" d="M203 756V420H205Q210 434 222 448T251 473T291 491T341 498Q398 498 433 481T487 432T514 359T521 268V0H371V238Q371 259 370 281T361 323T338 354T293 366Q264 366 246 356T219 328T206 288T203 242V0H53V756H203ZM333 800L270 878L208 800H73L192 944H355L471 800H333Z"  />
<glyph unicode="&#x126;" horiz-adv-x="759" d="M72 708H228V620H531V708H687V0H531V306H228V0H72V708ZM531 444V524H228V444H531Z"  />
<glyph unicode="&#x127;" horiz-adv-x="574" d="M337 561H203V420H205Q210 434 221 448T250 473T291 491T341 498Q398 498 433 481T487 432T514 359T521 268V0H371V238Q371 259 370 281T361 323T337 354T293 366Q264 366 246 356T219 328T206 288T203 242V0H53V561H-3V657H53V756H203V657H337V561Z"  />
<glyph unicode="&#x128;" horiz-adv-x="296" d="M70 708H226V0H70V708ZM-47 766Q-43 791 -33 816T-8 860T30 892T80 904Q105 904 125 898T167 883Q181 878 194 873T223 868Q240 868 250 878T267 904H345Q340 875 331 850T307 807T269 777T215 766Q193 766 174 772T137 787Q120 795 105 801T74 808Q57 808 47 794T32 766H-47Z"  />
<glyph unicode="&#x129;" horiz-adv-x="260" d="M55 486H205V0H55V486ZM-64 570Q-60 595 -50 620T-25 664T13 696T63 708Q88 708 108 702T150 687Q164 682 177 677T206 672Q223 672 233 682T250 708H328Q323 679 314 654T290 611T252 581T198 570Q176 570 157 576T120 591Q103 599 88 605T57 612Q40 612 30 598T15 570H-64Z"  />
<glyph unicode="&#x12A;" horiz-adv-x="296" d="M70 708H226V0H70V708ZM317 787H-23V883H317V787Z"  />
<glyph unicode="&#x12B;" horiz-adv-x="260" d="M55 486H205V0H55V486ZM302 591H-38V687H302V591Z"  />
<glyph unicode="&#x12E;" horiz-adv-x="296" d="M70 708H226V0H140Q128 -12 116 -27T93 -58T77 -90T70 -122Q70 -139 82 -153T112 -168Q126 -168 140 -161T166 -145L194 -198Q169 -217 143 -228T85 -240Q43 -240 12 -216T-20 -147Q-20 -128 -12 -108T10 -68T39 -32T70 0V708Z"  />
<glyph unicode="&#x12F;" horiz-adv-x="260" d="M55 486H205V0H154Q142 -12 130 -27T107 -58T91 -90T84 -122Q84 -139 96 -153T126 -168Q140 -168 154 -161T180 -145L208 -198Q183 -217 157 -228T99 -240Q57 -240 26 -216T-6 -147Q-6 -128 2 -108T24 -68T53 -32T84 0H55V486ZM43 639Q43 675 68 700T130 726Q166 726 191 701T217 639Q217 603 192 578T130 552Q94 552 69 577T43 639Z"  />
<glyph unicode="&#x130;" horiz-adv-x="296" d="M70 708H226V0H70V708ZM153 754Q135 754 120 761T94 780T77 807T70 840Q70 856 76 871T94 897T119 915T151 922Q186 922 212 899T238 840Q238 804 214 779T153 754Z"  />
<glyph unicode="&#x131;" horiz-adv-x="260" d="M55 486H205V0H55V486Z"  />
<glyph unicode="&#x132;" horiz-adv-x="791" d="M70 708H226V0H70V708ZM729 237Q729 188 721 142T688 61T620 4T503 -18Q419 -18 361 22T286 147L429 182Q432 156 452 138T499 120Q526 120 541 133T563 167T571 210T573 254V708H729V237Z"  />
<glyph unicode="&#x133;" horiz-adv-x="512" d="M55 486H205V0H55V486ZM43 639Q43 675 68 700T130 726Q166 726 191 701T217 639Q217 603 192 578T130 552Q94 552 69 577T43 639ZM457 -36Q457 -83 448 -120T418 -184T363 -225T277 -240Q260 -240 242 -239T207 -232L215 -99Q233 -108 254 -108Q273 -108 284 -98T300 -73T306 -41T307 -10V486H457V-36ZM295 639Q295 675 320 700T382 726Q418 726 443 701T469 639Q469 603 444 578T382 552Q346 552 321 577T295 639Z"  />
<glyph unicode="&#x134;" horiz-adv-x="500" d="M438 237Q438 188 430 142T397 61T329 4T212 -18Q128 -18 70 22T-5 147L138 182Q141 156 161 138T208 120Q235 120 250 133T272 167T280 210T282 254V708H438V237ZM422 760L359 838L297 760H162L281 904H444L560 760H422Z"  />
<glyph unicode="&#x135;" horiz-adv-x="260" d="M205 -36Q205 -83 196 -120T166 -184T111 -225T25 -240Q8 -240 -10 -239T-45 -232L-37 -99Q-19 -108 2 -108Q21 -108 32 -98T48 -73T54 -41T55 -10V486H205V-36ZM191 564L128 642L66 564H-69L50 708H213L329 564H191Z"  />
<glyph unicode="&#x136;" horiz-adv-x="722" d="M78 708H234V414L509 708H713L398 379L740 0H522L234 336V0H78V708ZM296 -61H440L350 -260H232L296 -61Z"  />
<glyph unicode="&#x137;" horiz-adv-x="556" d="M53 756H203V294L369 486H553L360 267L558 0H369L205 246H203V0H53V756ZM206 -61H350L260 -260H142L206 -61Z"  />
<glyph unicode="&#x139;" horiz-adv-x="537" d="M78 708H234V144H523V0H78V708ZM157 904H361L188 760H56L157 904Z"  />
<glyph unicode="&#x13A;" horiz-adv-x="260" d="M55 756H205V0H55V756ZM146 944H350L177 800H45L146 944Z"  />
<glyph unicode="&#x13B;" horiz-adv-x="537" d="M78 708H234V144H523V0H78V708ZM232 -61H376L286 -260H168L232 -61Z"  />
<glyph unicode="&#x13C;" horiz-adv-x="260" d="M55 756H205V0H55V756ZM78 -61H222L132 -260H14L78 -61Z"  />
<glyph unicode="&#x13D;" horiz-adv-x="537" d="M78 708H234V144H523V0H78V708ZM356 708H490L410 509H312L356 708Z"  />
<glyph unicode="&#x13E;" horiz-adv-x="260" d="M55 756H205V0H55V756ZM301 708H435L355 509H257L301 708Z"  />
<glyph unicode="&#x13F;" horiz-adv-x="537" d="M78 708H234V144H523V0H78V708ZM408 318Q390 318 375 325T349 344T332 371T325 404Q325 420 331 435T349 461T374 479T406 486Q441 486 467 463T493 404Q493 368 469 343T408 318Z"  />
<glyph unicode="&#x140;" horiz-adv-x="400" d="M55 756H205V0H55V756ZM326 324Q308 324 293 331T267 350T250 377T243 410Q243 426 249 441T267 467T292 485T324 492Q359 492 385 469T411 410Q411 374 387 349T326 324Z"  />
<glyph unicode="&#x141;" horiz-adv-x="537" d="M78 160L18 108V240L78 292V708H234V427L444 612V482L234 298V144H523V0H78V160Z"  />
<glyph unicode="&#x142;" horiz-adv-x="260" d="M55 248L-5 187V316L55 377V756H205V527L265 588V459L205 398V0H55V248Z"  />
<glyph unicode="&#x143;" horiz-adv-x="815" d="M72 708H284L585 216H587V708H743V0H539L230 504H228V0H72V708ZM424 904H628L455 760H323L424 904Z"  />
<glyph unicode="&#x144;" horiz-adv-x="574" d="M53 486H197V420H199Q206 434 219 448T250 473T291 491T341 498Q398 498 433 481T487 432T514 359T521 268V0H371V238Q371 259 370 281T361 323T338 354T293 366Q264 366 246 356T219 328T206 288T203 242V0H53V486ZM262 708H466L293 564H161L262 708Z"  />
<glyph unicode="&#x145;" horiz-adv-x="815" d="M72 708H284L585 216H587V708H743V0H539L230 504H228V0H72V708ZM337 -61H481L391 -260H273L337 -61Z"  />
<glyph unicode="&#x146;" horiz-adv-x="574" d="M53 486H197V420H199Q206 434 219 448T250 473T291 491T341 498Q398 498 433 481T487 432T514 359T521 268V0H371V238Q371 259 370 281T361 323T338 354T293 366Q264 366 246 356T219 328T206 288T203 242V0H53V486ZM228 -61H372L282 -260H164L228 -61Z"  />
<glyph unicode="&#x147;" horiz-adv-x="815" d="M72 708H284L585 216H587V708H743V0H539L230 504H228V0H72V708ZM379 931L442 853L504 931H639L520 787H357L241 931H379Z"  />
<glyph unicode="&#x148;" horiz-adv-x="574" d="M53 486H197V420H199Q206 434 219 448T250 473T291 491T341 498Q398 498 433 481T487 432T514 359T521 268V0H371V238Q371 259 370 281T361 323T338 354T293 366Q264 366 246 356T219 328T206 288T203 242V0H53V486ZM222 708L285 630L347 708H482L363 564H200L84 708H222Z"  />
<glyph unicode="&#x149;" horiz-adv-x="574" d="M53 486H197V420H199Q206 434 219 448T250 473T291 491T341 498Q398 498 433 481T487 432T514 359T521 268V0H371V238Q371 259 370 281T361 323T338 354T293 366Q264 366 246 356T219 328T206 288T203 242V0H53V486ZM-33 708H101L21 509H-77L-33 708Z"  />
<glyph unicode="&#x14C;" horiz-adv-x="832" d="M34 354Q34 439 62 508T142 625T263 700T416 726Q499 726 569 700T690 626T769 508T798 354Q798 269 770 200T690 83T569 8T416 -18Q333 -18 263 8T142 82T63 200T34 354ZM196 354Q196 304 211 263T256 191T325 143T416 126Q466 126 506 143T576 190T620 262T636 354Q636 403 621 445T576 517T507 565T416 582Q366 582 326 565T256 518T212 445T196 354ZM585 787H245V883H585V787Z"  />
<glyph unicode="&#x14D;" horiz-adv-x="610" d="M35 243Q35 301 56 348T113 428T199 480T305 498Q361 498 410 480T496 429T554 348T575 243Q575 185 554 138T497 58T411 6T305 -12Q249 -12 200 6T114 57T56 138T35 243ZM185 243Q185 188 216 154T305 120Q362 120 393 154T425 243Q425 298 394 332T305 366Q248 366 217 332T185 243ZM475 591H135V687H475V591Z"  />
<glyph unicode="&#x14E;" horiz-adv-x="832" d="M34 354Q34 439 62 508T142 625T263 700T416 726Q499 726 569 700T690 626T769 508T798 354Q798 269 770 200T690 83T569 8T416 -18Q333 -18 263 8T142 82T63 200T34 354ZM196 354Q196 304 211 263T256 191T325 143T416 126Q466 126 506 143T576 190T620 262T636 354Q636 403 621 445T576 517T507 565T416 582Q366 582 326 565T256 518T212 445T196 354ZM311 904Q314 889 324 880T349 866T381 858T415 856Q454 856 481 863T520 904H599Q595 866 579 839T539 794T483 768T415 760Q380 760 348 767T290 792T249 837T231 904H311Z"  />
<glyph unicode="&#x14F;" horiz-adv-x="610" d="M35 243Q35 301 56 348T113 428T199 480T305 498Q361 498 410 480T496 429T554 348T575 243Q575 185 554 138T497 58T411 6T305 -12Q249 -12 200 6T114 57T56 138T35 243ZM185 243Q185 188 216 154T305 120Q362 120 393 154T425 243Q425 298 394 332T305 366Q248 366 217 332T185 243ZM201 708Q204 693 214 684T239 670T271 662T305 660Q344 660 371 667T410 708H489Q485 670 469 643T429 598T373 572T305 564Q269 564 237 571T180 596T139 641T121 708H201Z"  />
<glyph unicode="&#x150;" horiz-adv-x="832" d="M34 354Q34 439 62 508T142 625T263 700T416 726Q499 726 569 700T690 626T769 508T798 354Q798 269 770 200T690 83T569 8T416 -18Q333 -18 263 8T142 82T63 200T34 354ZM196 354Q196 304 211 263T256 191T325 143T416 126Q466 126 506 143T576 190T620 262T636 354Q636 403 621 445T576 517T507 565T416 582Q366 582 326 565T256 518T212 445T196 354ZM316 904H520L347 760H215L316 904ZM580 904H784L611 760H479L580 904Z"  />
<glyph unicode="&#x151;" horiz-adv-x="610" d="M35 243Q35 301 56 348T113 428T199 480T305 498Q361 498 410 480T496 429T554 348T575 243Q575 185 554 138T497 58T411 6T305 -12Q249 -12 200 6T114 57T56 138T35 243ZM185 243Q185 188 216 154T305 120Q362 120 393 154T425 243Q425 298 394 332T305 366Q248 366 217 332T185 243ZM191 708H395L222 564H90L191 708ZM455 708H659L486 564H354L455 708Z"  />
<glyph unicode="&#x152;" horiz-adv-x="1018" d="M665 432H929V288H665V144H965V0H434Q363 0 292 20T163 84T70 194T34 354Q34 440 64 506T148 617T272 685T426 708H953V564H665V432ZM509 564H458Q400 564 352 551T270 512T216 446T196 354Q196 301 215 262T269 197T352 157T458 144H509V564Z"  />
<glyph unicode="&#x153;" horiz-adv-x="944" d="M883 84Q847 38 792 13T678 -12Q615 -12 569 3T488 57Q450 18 404 3T306 -12Q249 -12 200 6T114 57T56 138T35 243Q35 301 56 348T114 428T200 480T306 498Q360 498 406 480T488 425Q520 459 566 478T678 498Q730 498 772 480T844 429T890 348T906 243V196H558Q567 153 597 128T671 102Q708 102 733 118T778 161L883 84ZM306 366Q249 366 217 332T185 243Q185 188 217 154T306 120Q363 120 394 154T426 243Q426 298 395 332T306 366ZM756 298Q757 336 731 363T664 390Q639 390 620 382T588 362T567 333T558 298H756Z"  />
<glyph unicode="&#x154;" horiz-adv-x="648" d="M72 708H346Q400 708 448 698T533 663T591 597T613 493Q613 418 574 366T460 299L640 0H453L305 283H228V0H72V708ZM228 415H320Q341 415 364 416T407 425T438 449T451 494Q451 521 440 537T412 561T373 573T330 576H228V415ZM291 904H495L322 760H190L291 904Z"  />
<glyph unicode="&#x155;" horiz-adv-x="407" d="M53 486H203V408H205Q229 453 262 475T345 498Q358 498 371 497T395 493V356Q379 361 364 363T331 366Q288 366 263 354T225 321T207 269T203 203V0H53V486ZM216 708H420L247 564H115L216 708Z"  />
<glyph unicode="&#x156;" horiz-adv-x="648" d="M72 708H346Q400 708 448 698T533 663T591 597T613 493Q613 418 574 366T460 299L640 0H453L305 283H228V0H72V708ZM228 415H320Q341 415 364 416T407 425T438 449T451 494Q451 521 440 537T412 561T373 573T330 576H228V415ZM253 -61H397L307 -260H189L253 -61Z"  />
<glyph unicode="&#x157;" horiz-adv-x="407" d="M53 486H203V408H205Q229 453 262 475T345 498Q358 498 371 497T395 493V356Q379 361 364 363T331 366Q288 366 263 354T225 321T207 269T203 203V0H53V486ZM122 -61H266L176 -260H58L122 -61Z"  />
<glyph unicode="&#x158;" horiz-adv-x="648" d="M72 708H346Q400 708 448 698T533 663T591 597T613 493Q613 418 574 366T460 299L640 0H453L305 283H228V0H72V708ZM228 415H320Q341 415 364 416T407 425T438 449T451 494Q451 521 440 537T412 561T373 573T330 576H228V415ZM252 931L315 853L377 931H512L393 787H230L114 931H252Z"  />
<glyph unicode="&#x159;" horiz-adv-x="407" d="M53 486H203V408H205Q229 453 262 475T345 498Q358 498 371 497T395 493V356Q379 361 364 363T331 366Q288 366 263 354T225 321T207 269T203 203V0H53V486ZM147 708L210 630L272 708H407L288 564H125L9 708H147Z"  />
<glyph unicode="&#x15A;" horiz-adv-x="574" d="M422 535Q403 559 371 570T309 582Q292 582 274 578T240 566T214 543T204 509Q204 477 228 460T288 431T367 407T445 373T506 314T530 215Q530 156 508 112T449 39T362 -4T257 -18Q188 -18 129 3T19 71L130 193Q154 161 190 144T266 126Q285 126 304 130T339 144T364 167T374 200Q374 232 350 250T288 282T208 308T128 343T67 401T42 496Q42 553 64 596T124 668T211 711T312 726Q372 726 428 709T529 652L422 535ZM296 904H500L327 760H195L296 904Z"  />
<glyph unicode="&#x15B;" horiz-adv-x="463" d="M328 343Q295 384 241 384Q222 384 204 375T186 344Q186 326 204 318T251 303T312 289T373 265T420 222T439 148Q439 101 419 71T366 22T294 -4T215 -12Q164 -12 112 2T24 54L115 155Q136 129 161 116T221 102Q247 102 268 109T289 137Q289 156 271 165T224 181T163 195T102 218T55 260T36 334Q36 377 53 408T99 459T165 488T240 498Q288 498 337 484T420 434L328 343ZM242 708H446L273 564H141L242 708Z"  />
<glyph unicode="&#x15C;" horiz-adv-x="574" d="M422 535Q403 559 371 570T309 582Q292 582 274 578T240 566T214 543T204 509Q204 477 228 460T288 431T367 407T445 373T506 314T530 215Q530 156 508 112T449 39T362 -4T257 -18Q188 -18 129 3T19 71L130 193Q154 161 190 144T266 126Q285 126 304 130T339 144T364 167T374 200Q374 232 350 250T288 282T208 308T128 343T67 401T42 496Q42 553 64 596T124 668T211 711T312 726Q372 726 428 709T529 652L422 535ZM358 760L295 838L233 760H98L217 904H380L496 760H358Z"  />
<glyph unicode="&#x15D;" horiz-adv-x="463" d="M328 343Q295 384 241 384Q222 384 204 375T186 344Q186 326 204 318T251 303T312 289T373 265T420 222T439 148Q439 101 419 71T366 22T294 -4T215 -12Q164 -12 112 2T24 54L115 155Q136 129 161 116T221 102Q247 102 268 109T289 137Q289 156 271 165T224 181T163 195T102 218T55 260T36 334Q36 377 53 408T99 459T165 488T240 498Q288 498 337 484T420 434L328 343ZM300 564L237 642L175 564H40L159 708H322L438 564H300Z"  />
<glyph unicode="&#x15E;" horiz-adv-x="574" d="M422 535Q403 559 371 570T309 582Q292 582 274 578T240 566T214 543T204 509Q204 477 228 460T288 431T367 407T445 373T506 314T530 215Q530 162 513 122T465 54T395 9T308 -14L277 -60Q299 -60 321 -62T362 -73T391 -98T403 -143Q403 -170 389 -189T353 -219T307 -235T264 -240Q234 -240 200 -232T139 -210L164 -163Q176 -168 195 -174T241 -180Q253 -180 264 -179T285 -174T301 -164T307 -148Q307 -130 290 -122T257 -114Q242 -114 221 -122L189 -93L239 -17Q176 -15 122 5T19 71L130 193Q154 161 190 144T266 126Q285 126 304 130T339 144T364 167T374 200Q374 232 350 250T288 282T208 308T128 343T67 401T42 496Q42 553 64 596T124 668T210 711T312 726Q372 726 428 709T529 652L422 535Z"  />
<glyph unicode="&#x15F;" horiz-adv-x="463" d="M328 343Q295 384 241 384Q222 384 204 375T186 344Q186 326 204 318T251 303T312 289T373 265T420 222T439 148Q439 110 425 83T388 37T335 7T273 -8L238 -60Q260 -60 282 -62T323 -73T352 -98T364 -143Q364 -170 350 -189T314 -219T268 -235T225 -240Q195 -240 161 -232T100 -210L125 -163Q137 -168 156 -174T202 -180Q214 -180 225 -179T246 -174T262 -164T268 -148Q268 -130 251 -122T218 -114Q203 -114 182 -122L150 -93L204 -12Q155 -10 107 4T24 54L115 155Q136 129 161 116T221 102Q247 102 268 109T289 137Q289 156 271 165T224 181T163 195T102 218T55 260T36 334Q36 377 53 408T99 459T165 488T240 498Q288 498 337 484T420 434L328 343Z"  />
<glyph unicode="&#x160;" horiz-adv-x="574" d="M422 535Q403 559 371 570T309 582Q292 582 274 578T240 566T214 543T204 509Q204 477 228 460T288 431T367 407T445 373T506 314T530 215Q530 156 508 112T449 39T362 -4T257 -18Q188 -18 129 3T19 71L130 193Q154 161 190 144T266 126Q285 126 304 130T339 144T364 167T374 200Q374 232 350 250T288 282T208 308T128 343T67 401T42 496Q42 553 64 596T124 668T211 711T312 726Q372 726 428 709T529 652L422 535ZM222 931L285 853L347 931H482L363 787H200L84 931H222Z"  />
<glyph unicode="&#x161;" horiz-adv-x="463" d="M328 343Q295 384 241 384Q222 384 204 375T186 344Q186 326 204 318T251 303T312 289T373 265T420 222T439 148Q439 101 419 71T366 22T294 -4T215 -12Q164 -12 112 2T24 54L115 155Q136 129 161 116T221 102Q247 102 268 109T289 137Q289 156 271 165T224 181T163 195T102 218T55 260T36 334Q36 377 53 408T99 459T165 488T240 498Q288 498 337 484T420 434L328 343ZM167 708L230 630L292 708H427L308 564H145L29 708H167Z"  />
<glyph unicode="&#x162;" horiz-adv-x="574" d="M209 570H7V708H567V570H365V0H209V570ZM240 -61H384L294 -260H176L240 -61Z"  />
<glyph unicode="&#x163;" horiz-adv-x="407" d="M384 366H252V204Q252 184 254 168T263 139T284 121T323 114Q335 114 354 116T384 128V3Q359 -6 332 -9T279 -12Q241 -12 209 -4T153 21T116 67T102 135V366H6V486H102V630H252V486H384V366ZM167 -61H311L221 -260H103L167 -61Z"  />
<glyph unicode="&#x164;" horiz-adv-x="574" d="M209 570H7V708H567V570H365V0H209V570ZM226 931L289 853L351 931H486L367 787H204L88 931H226Z"  />
<glyph unicode="&#x165;" horiz-adv-x="407" d="M384 366H252V204Q252 184 254 168T263 139T284 121T323 114Q335 114 354 116T384 128V3Q359 -6 332 -9T279 -12Q241 -12 209 -4T153 21T116 67T102 135V366H6V486H102V630H252V486H384V366ZM350 758H484L404 559H306L350 758Z"  />
<glyph unicode="&#x166;" horiz-adv-x="574" d="M490 366H365V0H209V366H90V462H209V570H7V708H567V570H365V462H490V366Z"  />
<glyph unicode="&#x167;" horiz-adv-x="407" d="M367 217H252V204Q252 184 254 168T263 139T284 121T323 114Q335 114 354 116T384 128V3Q359 -6 332 -9T279 -12Q241 -12 209 -4T153 21T116 67T102 135V217H27V313H102V366H6V486H102V630H252V486H384V366H252V313H367V217Z"  />
<glyph unicode="&#x168;" horiz-adv-x="741" d="M669 273Q669 210 650 157T594 65T500 4T371 -18Q297 -18 241 4T148 65T91 157T72 273V708H228V279Q228 246 238 218T268 170T313 138T371 126Q402 126 428 137T473 169T502 218T513 279V708H669V273ZM181 766Q185 791 195 816T220 860T258 892T308 904Q333 904 353 898T395 883Q409 878 422 873T451 868Q468 868 478 878T495 904H573Q568 875 559 850T535 807T497 777T443 766Q421 766 402 772T365 787Q348 795 333 801T302 808Q285 808 275 794T260 766H181Z"  />
<glyph unicode="&#x169;" horiz-adv-x="574" d="M521 0H377V66H375Q367 52 355 38T324 13T283 -5T233 -12Q176 -12 141 5T86 54T60 127T53 218V486H203V248Q203 227 204 205T213 163T236 132T281 120Q310 120 328 130T355 158T368 198T371 244V486H521V0ZM94 570Q98 595 108 620T133 664T171 696T221 708Q246 708 266 702T308 687Q322 682 335 677T364 672Q381 672 391 682T408 708H486Q481 679 472 654T448 611T410 581T356 570Q334 570 315 576T278 591Q261 599 246 605T215 612Q198 612 188 598T173 570H94Z"  />
<glyph unicode="&#x16A;" horiz-adv-x="741" d="M669 273Q669 210 650 157T594 65T500 4T371 -18Q297 -18 241 4T148 65T91 157T72 273V708H228V279Q228 246 238 218T268 170T313 138T371 126Q402 126 428 137T473 169T502 218T513 279V708H669V273ZM547 787H207V883H547V787Z"  />
<glyph unicode="&#x16B;" horiz-adv-x="574" d="M521 0H377V66H375Q367 52 355 38T324 13T283 -5T233 -12Q176 -12 141 5T86 54T60 127T53 218V486H203V248Q203 227 204 205T213 163T236 132T281 120Q310 120 328 130T355 158T368 198T371 244V486H521V0ZM456 591H116V687H456V591Z"  />
<glyph unicode="&#x16C;" horiz-adv-x="741" d="M669 273Q669 210 650 157T594 65T500 4T371 -18Q297 -18 241 4T148 65T91 157T72 273V708H228V279Q228 246 238 218T268 170T313 138T371 126Q402 126 428 137T473 169T502 218T513 279V708H669V273ZM273 904Q276 889 286 880T311 866T343 858T377 856Q416 856 443 863T482 904H561Q557 866 541 839T501 794T445 768T377 760Q342 760 310 767T252 792T211 837T193 904H273Z"  />
<glyph unicode="&#x16D;" horiz-adv-x="574" d="M521 0H377V66H375Q367 52 355 38T324 13T283 -5T233 -12Q176 -12 141 5T86 54T60 127T53 218V486H203V248Q203 227 204 205T213 163T236 132T281 120Q310 120 328 130T355 158T368 198T371 244V486H521V0ZM185 708Q188 693 198 684T223 670T255 662T289 660Q328 660 355 667T394 708H473Q469 670 453 643T413 598T357 572T289 564Q253 564 221 571T164 596T123 641T105 708H185Z"  />
<glyph unicode="&#x16E;" horiz-adv-x="741" d="M669 273Q669 210 650 157T594 65T500 4T371 -18Q297 -18 241 4T148 65T91 157T72 273V708H228V279Q228 246 238 218T268 170T313 138T371 126Q402 126 428 137T473 169T502 218T513 279V708H669V273ZM377 731Q354 731 334 740T299 764T275 799T266 842Q266 864 275 884T299 920T334 944T377 953Q399 953 419 944T455 920T479 885T488 842Q488 819 479 799T455 764T420 740T377 731ZM326 842Q326 821 341 806T377 791Q398 791 413 806T428 842Q428 863 413 878T377 893Q356 893 341 878T326 842Z"  />
<glyph unicode="&#x16F;" horiz-adv-x="574" d="M521 0H377V66H375Q367 52 355 38T324 13T283 -5T233 -12Q176 -12 141 5T86 54T60 127T53 218V486H203V248Q203 227 204 205T213 163T236 132T281 120Q310 120 328 130T355 158T368 198T371 244V486H521V0ZM284 545Q261 545 241 554T206 578T182 613T173 656Q173 679 182 699T206 734T241 758T284 767Q307 767 327 758T362 734T386 699T395 656Q395 633 386 613T362 578T327 554T284 545ZM233 656Q233 635 248 620T284 605Q305 605 320 620T335 656Q335 677 320 692T284 707Q263 707 248 692T233 656Z"  />
<glyph unicode="&#x170;" horiz-adv-x="741" d="M669 273Q669 210 650 157T594 65T500 4T371 -18Q297 -18 241 4T148 65T91 157T72 273V708H228V279Q228 246 238 218T268 170T313 138T371 126Q402 126 428 137T473 169T502 218T513 279V708H669V273ZM262 904H466L293 760H161L262 904ZM526 904H730L557 760H425L526 904Z"  />
<glyph unicode="&#x171;" horiz-adv-x="574" d="M521 0H377V66H375Q367 52 355 38T324 13T283 -5T233 -12Q176 -12 141 5T86 54T60 127T53 218V486H203V248Q203 227 204 205T213 163T236 132T281 120Q310 120 328 130T355 158T368 198T371 244V486H521V0ZM161 708H365L192 564H60L161 708ZM425 708H629L456 564H324L425 708Z"  />
<glyph unicode="&#x172;" horiz-adv-x="741" d="M491 -198Q466 -217 440 -228T382 -240Q340 -240 309 -216T277 -147Q277 -114 299 -79T348 -17Q280 -14 228 9T142 71T90 161T72 273V708H228V279Q228 246 238 218T268 170T313 138T371 126Q402 126 428 137T473 169T502 218T513 279V708H669V273Q669 216 654 167T607 80T530 17T422 -15Q401 -38 384 -67T367 -122Q367 -139 379 -153T409 -168Q423 -168 437 -161T463 -145L491 -198Z"  />
<glyph unicode="&#x173;" horiz-adv-x="574" d="M501 -198Q476 -217 450 -228T392 -240Q350 -240 319 -216T287 -147Q287 -128 295 -108T317 -68T346 -32T377 0V66H375Q367 52 355 38T324 13T284 -5T233 -12Q176 -12 141 5T86 54T60 127T53 218V486H203V248Q203 227 204 205T213 163T236 132T281 120Q310 120 328 130T355 158T368 198T371 244V486H521V0H447Q435 -12 423 -27T400 -58T384 -90T377 -122Q377 -139 389 -153T419 -168Q433 -168 447 -161T473 -145L501 -198Z"  />
<glyph unicode="&#x174;" horiz-adv-x="1000" d="M-2 708H168L281 254H283L431 708H576L723 242H725L844 708H1002L795 0H656L500 490H498L342 0H208L-2 708ZM560 760L497 838L435 760H300L419 904H582L698 760H560Z"  />
<glyph unicode="&#x175;" horiz-adv-x="833" d="M-5 486H155L254 181H256L339 486H503L593 181H595L686 486H838L665 0H517L416 323H414L324 0H173L-5 486ZM476 564L413 642L351 564H216L335 708H498L614 564H476Z"  />
<glyph unicode="&#x176;" horiz-adv-x="648" d="M246 302L-20 708H174L324 443L483 708H668L402 302V0H246V302ZM385 760L322 838L260 760H125L244 904H407L523 760H385Z"  />
<glyph unicode="&#x177;" horiz-adv-x="556" d="M333 -79Q318 -118 304 -148T269 -198T214 -229T127 -240Q69 -240 15 -222L35 -99Q69 -114 105 -114Q130 -114 146 -109T172 -93T190 -67T205 -32L216 -4L3 486H165L290 165H292L399 486H553L333 -79ZM353 564L290 642L228 564H93L212 708H375L491 564H353Z"  />
<glyph unicode="&#x178;" horiz-adv-x="648" d="M246 302L-20 708H174L324 443L483 708H668L402 302V0H246V302ZM219 780Q201 780 186 787T160 806T143 833T136 866Q136 882 142 897T160 923T185 941T217 948Q252 948 278 925T304 866Q304 830 280 805T219 780ZM427 780Q409 780 394 787T368 806T351 833T344 866Q344 882 350 897T368 923T393 941T425 948Q460 948 486 925T512 866Q512 830 488 805T427 780Z"  />
<glyph unicode="&#x179;" horiz-adv-x="630" d="M35 144L394 570H48V708H583V570L231 144H595V0H35V144ZM321 904H525L352 760H220L321 904Z"  />
<glyph unicode="&#x17A;" horiz-adv-x="500" d="M34 150L286 366H40V486H460V342L196 120H466V0H34V150ZM250 708H454L281 564H149L250 708Z"  />
<glyph unicode="&#x17B;" horiz-adv-x="630" d="M35 144L394 570H48V708H583V570L231 144H595V0H35V144ZM336 754Q318 754 303 761T277 780T260 807T253 840Q253 856 259 871T277 897T302 915T334 922Q369 922 395 899T421 840Q421 804 397 779T336 754Z"  />
<glyph unicode="&#x17C;" horiz-adv-x="500" d="M34 150L286 366H40V486H460V342L196 120H466V0H34V150ZM265 558Q247 558 232 565T206 584T189 611T182 644Q182 660 188 675T206 701T231 719T263 726Q298 726 324 703T350 644Q350 608 326 583T265 558Z"  />
<glyph unicode="&#x17D;" horiz-adv-x="630" d="M35 144L394 570H48V708H583V570L231 144H595V0H35V144ZM250 931L313 853L375 931H510L391 787H228L112 931H250Z"  />
<glyph unicode="&#x17E;" horiz-adv-x="500" d="M34 150L286 366H40V486H460V342L196 120H466V0H34V150ZM185 708L248 630L310 708H445L326 564H163L47 708H185Z"  />
<glyph unicode="&#x192;" horiz-adv-x="592" d="M496 332H350L292 40Q284 -1 269 -34T230 -90T172 -126T91 -139Q63 -139 35 -133T-20 -115L32 4Q43 -2 54 -4T78 -7Q110 -7 126 14T153 88L203 332H89V434H223L241 525Q252 580 267 617T305 678T360 710T439 720Q474 720 505 713T569 690L516 577Q491 588 464 588Q428 588 411 569T385 505L370 434H496V332Z"  />
<glyph unicode="&#x218;" horiz-adv-x="574" d="M422 535Q403 559 371 570T309 582Q292 582 274 578T240 566T214 543T204 509Q204 477 228 460T288 431T367 407T445 373T506 314T530 215Q530 156 508 112T449 39T362 -4T257 -18Q188 -18 129 3T19 71L130 193Q154 161 190 144T266 126Q285 126 304 130T339 144T364 167T374 200Q374 232 350 250T288 282T208 308T128 343T67 401T42 496Q42 553 64 596T124 668T211 711T312 726Q372 726 428 709T529 652L422 535ZM217 -61H361L271 -260H153L217 -61Z"  />
<glyph unicode="&#x219;" horiz-adv-x="463" d="M328 343Q295 384 241 384Q222 384 204 375T186 344Q186 326 204 318T251 303T312 289T373 265T420 222T439 148Q439 101 419 71T366 22T294 -4T215 -12Q164 -12 112 2T24 54L115 155Q136 129 161 116T221 102Q247 102 268 109T289 137Q289 156 271 165T224 181T163 195T102 218T55 260T36 334Q36 377 53 408T99 459T165 488T240 498Q288 498 337 484T420 434L328 343ZM172 -61H316L226 -260H108L172 -61Z"  />
<glyph unicode="&#x21A;" horiz-adv-x="574" d="M209 570H7V708H567V570H365V0H209V570ZM240 -61H384L294 -260H176L240 -61Z"  />
<glyph unicode="&#x21B;" horiz-adv-x="407" d="M384 366H252V204Q252 184 254 168T263 139T284 121T323 114Q335 114 354 116T384 128V3Q359 -6 332 -9T279 -12Q241 -12 209 -4T153 21T116 67T102 135V366H6V486H102V630H252V486H384V366ZM167 -61H311L221 -260H103L167 -61Z"  />
<glyph unicode="&#x237;" horiz-adv-x="260" d="M205 -36Q205 -83 196 -120T166 -184T111 -225T25 -240Q8 -240 -10 -239T-45 -232L-37 -99Q-19 -108 2 -108Q21 -108 32 -98T48 -73T54 -41T55 -10V486H205V-36Z"  />
<glyph unicode="&#x2C6;" horiz-adv-x="260" d="M191 564L128 642L66 564H-69L50 708H213L329 564H191Z"  />
<glyph unicode="&#x2C7;" horiz-adv-x="260" d="M65 708L128 630L190 708H325L206 564H43L-73 708H65Z"  />
<glyph unicode="&#x2C9;" horiz-adv-x="260" d="M300 591H-40V687H300V591Z"  />
<glyph unicode="&#x2D8;" horiz-adv-x="260" d="M26 708Q29 693 39 684T64 670T96 662T130 660Q169 660 196 667T235 708H314Q310 670 294 643T254 598T198 572T130 564Q94 564 62 571T5 596T-36 641T-54 708H26Z"  />
<glyph unicode="&#x2D9;" horiz-adv-x="260" d="M129 558Q111 558 96 565T70 584T53 611T46 644Q46 660 52 675T70 701T95 719T127 726Q162 726 188 703T214 644Q214 608 190 583T129 558Z"  />
<glyph unicode="&#x2DA;" horiz-adv-x="260" d="M130 545Q107 545 87 554T52 578T28 613T19 656Q19 679 28 699T52 734T87 758T130 767Q153 767 173 758T208 734T232 699T241 656Q241 633 232 613T208 578T173 554T130 545ZM79 656Q79 635 94 620T130 605Q151 605 166 620T181 656Q181 677 166 692T130 707Q109 707 94 692T79 656Z"  />
<glyph unicode="&#x2DB;" horiz-adv-x="260" d="M205 -198Q180 -217 154 -228T96 -240Q75 -240 56 -234T23 -216T0 -187T-9 -147Q-9 -125 1 -103T27 -59T61 -19T96 12H164Q152 1 138 -14T111 -48T90 -86T81 -122Q81 -139 93 -153T123 -168Q137 -168 151 -161T177 -145L205 -198Z"  />
<glyph unicode="&#x2DC;" horiz-adv-x="260" d="M-66 570Q-62 595 -52 620T-27 664T11 696T61 708Q86 708 106 702T148 687Q162 682 175 677T204 672Q221 672 231 682T248 708H326Q321 679 312 654T288 611T250 581T196 570Q174 570 155 576T118 591Q101 599 86 605T55 612Q38 612 28 598T13 570H-66Z"  />
<glyph unicode="&#x2DD;" horiz-adv-x="260" d="M-1 708H203L30 564H-102L-1 708ZM263 708H467L294 564H162L263 708Z"  />
<glyph unicode="&#x394;" horiz-adv-x="693" d="M27 78L267 721H432L665 79V0H27V78ZM515 109L403 402Q397 421 389 445T372 494T357 541T345 580H342Q339 567 333 548T319 506T303 460T289 417L170 109H515Z"  />
<glyph unicode="&#x3A9;" horiz-adv-x="751" d="M182 112Q158 133 135 161T94 224T65 302T54 392Q54 458 77 517T143 620T245 690T378 716Q455 716 514 688T614 614T675 512T696 398Q696 350 685 307T656 228T614 162T565 112V109H710V0H427V81Q452 97 475 122T517 182T545 263T556 369Q556 415 545 458T510 533T454 585T377 605Q336 605 302 587T244 537T207 460T194 364Q194 310 204 265T232 183T273 122T323 81V0H39V109H182V112Z"  />
<glyph unicode="&#x3BC;" horiz-adv-x="574" d="M521 0H377V66H375Q367 52 355 38T324 13T283 -5T233 -12Q216 -12 203 -9V-228H53V486H203V248Q203 227 204 205T213 163T236 132T281 120Q310 120 328 130T355 158T368 198T371 244V486H521V0Z"  />
<glyph unicode="&#x3C0;" horiz-adv-x="637" d="M538 416V154Q538 97 542 61T552 0H418Q408 16 404 54T400 147V416H258Q256 375 251 319T237 205T217 92T192 0H58Q71 43 82 98T102 210T115 321T122 416Q85 416 61 414T19 406L4 495Q24 511 66 520T178 530H622L612 416H538Z"  />
<glyph unicode="&#x2013;" horiz-adv-x="500" d="M0 309H500V189H0V309Z"  />
<glyph unicode="&#x2014;" horiz-adv-x="1000" d="M0 309H1000V189H0V309Z"  />
<glyph unicode="&#x2018;" horiz-adv-x="296" d="M129 708H257L183 426H39L129 708Z"  />
<glyph unicode="&#x2019;" horiz-adv-x="296" d="M167 426H39L113 708H257L167 426Z"  />
<glyph unicode="&#x201A;" horiz-adv-x="296" d="M167 -126H39L113 156H257L167 -126Z"  />
<glyph unicode="&#x201C;" horiz-adv-x="520" d="M134 708H262L188 426H44L134 708ZM348 708H476L402 426H258L348 708Z"  />
<glyph unicode="&#x201D;" horiz-adv-x="520" d="M386 426H258L332 708H476L386 426ZM172 426H44L118 708H262L172 426Z"  />
<glyph unicode="&#x201E;" horiz-adv-x="520" d="M386 -126H258L332 156H476L386 -126ZM172 -126H44L118 156H262L172 -126Z"  />
<glyph unicode="&#x2020;" horiz-adv-x="592" d="M224 372H34V498H224V708H362V498H558V372H362V-133H224V372Z"  />
<glyph unicode="&#x2021;" horiz-adv-x="592" d="M227 47H34V167H227V408H34V528H227V708H365V528H558V408H365V167H558V47H365V-133H227V47Z"  />
<glyph unicode="&#x2022;" horiz-adv-x="500" d="M73 354Q73 391 87 423T125 479T181 517T250 531Q287 531 319 517T375 479T413 423T427 354Q427 317 413 285T375 229T319 191T250 177Q213 177 181 191T125 229T87 285T73 354Z"  />
<glyph unicode="&#x2026;" horiz-adv-x="1000" d="M75 86Q75 105 82 122T101 151T131 171T167 178Q186 178 203 171T232 152T252 122T259 86Q259 67 252 50T233 21T203 1T167 -6Q148 -6 131 1T102 20T82 50T75 86ZM408 86Q408 105 415 122T434 151T464 171T500 178Q519 178 536 171T565 152T585 122T592 86Q592 67 585 50T566 21T536 1T500 -6Q481 -6 464 1T435 20T415 50T408 86ZM741 86Q741 105 748 122T767 151T797 171T833 178Q852 178 869 171T898 152T918 122T925 86Q925 67 918 50T899 21T869 1T833 -6Q814 -6 797 1T768 20T748 50T741 86Z"  />
<glyph unicode="&#x2030;" horiz-adv-x="1167" d="M395 165Q395 201 408 233T446 289T502 327T571 341Q607 341 639 327T695 289T733 233T747 165Q747 129 733 97T695 40T639 2T571 -12Q534 -12 502 2T446 40T409 96T395 165ZM782 165Q782 201 796 233T834 289T890 327T958 341Q994 341 1026 327T1083 289T1121 233T1135 165Q1135 129 1121 97T1083 40T1027 2T958 -12Q922 -12 890 2T834 40T796 96T782 165ZM32 544Q32 580 45 612T83 668T139 706T208 720Q244 720 276 706T333 668T371 612T385 544Q385 508 371 476T333 419T277 381T208 367Q171 367 139 381T83 419T46 475T32 544ZM128 544Q128 511 151 487T208 463Q241 463 265 487T289 544Q289 577 265 600T208 624Q175 624 152 601T128 544ZM491 165Q491 132 514 108T571 84Q604 84 627 108T651 165Q651 198 628 221T571 245Q538 245 515 222T491 165ZM878 165Q878 132 901 108T958 84Q991 84 1015 108T1039 165Q1039 198 1015 221T958 245Q925 245 902 222T878 165ZM552 740L636 693L223 -32L147 11L552 740Z"  />
<glyph unicode="&#x2039;" horiz-adv-x="296" d="M152 249L268 76L177 15L18 249L177 483L268 422L152 249Z"  />
<glyph unicode="&#x203A;" horiz-adv-x="296" d="M144 249L28 422L119 483L278 249L119 15L28 76L144 249Z"  />
<glyph unicode="&#x2044;" horiz-adv-x="167" d="M244 740L328 693L-85 -32L-161 11L244 740Z"  />
<glyph unicode="&#x20AC;" horiz-adv-x="592" d="M578 75Q545 36 487 12T362 -12Q250 -12 182 47T91 222H10L38 312H80Q79 317 79 321T79 330V349Q79 362 79 374T81 398H13L44 490H96Q126 605 204 662T403 720Q420 720 442 718T487 712T529 703T558 691L512 561Q497 571 468 578T403 586Q352 586 314 564T254 490H489L459 398H233Q232 387 232 376T231 353V332Q231 327 231 322T232 312H436L407 222H247Q262 173 293 146T376 118Q418 118 446 134T496 176L578 75Z"  />
<glyph unicode="&#x2113;" horiz-adv-x="546" d="M526 136Q484 56 425 24T303 -9Q257 -9 224 4T167 39T131 91T113 154Q113 162 112 165Q99 155 86 145T59 125L24 196Q47 215 69 231T111 266V514Q111 583 126 632T166 714T226 761T301 776Q340 776 368 762T415 723T443 665T452 595Q452 504 396 419T243 244L244 205Q246 154 271 128T335 101Q356 101 375 109T412 130T444 159T470 194L526 136ZM243 367Q297 427 330 486T363 598Q363 636 351 658T307 681Q296 681 285 674T264 648T249 599T243 522V367Z"  />
<glyph unicode="&#x2122;" horiz-adv-x="1000" d="M159 612H40V708H386V612H267V296H159V612ZM474 708H619L717 440L815 708H960V296H852V564H850L752 296H682L584 564H582V296H474V708Z"  />
<glyph unicode="&#x2126;" horiz-adv-x="751" d="M182 112Q158 133 135 161T94 224T65 302T54 392Q54 458 77 517T143 620T245 690T378 716Q455 716 514 688T614 614T675 512T696 398Q696 350 685 307T656 228T614 162T565 112V109H710V0H427V81Q452 97 475 122T517 182T545 263T556 369Q556 415 545 458T510 533T454 585T377 605Q336 605 302 587T244 537T207 460T194 364Q194 310 204 265T232 183T273 122T323 81V0H39V109H182V112Z"  />
<glyph unicode="&#x212E;" horiz-adv-x="779" d="M195 352V110Q274 31 389 31Q473 31 534 69T646 191L693 163Q663 115 632 81T564 25T484 -7T389 -17Q310 -17 247 11T138 90T69 207T44 352Q44 430 68 497T138 613T246 691T389 720Q466 720 529 693T639 617T710 501T735 352H195ZM584 400V593Q500 674 387 674Q274 674 195 593V400H584Z"  />
<glyph unicode="&#x2202;" horiz-adv-x="606" d="M68 737Q80 746 98 756T140 776T195 791T264 797Q323 797 376 772T470 699T533 578T557 410Q557 317 537 240T478 108T384 23T259 -8Q202 -8 161 14T92 72T52 150T38 233Q38 293 55 342T104 425T176 478T265 497Q298 497 324 488T369 465T402 438T421 414H422Q423 420 423 430T423 447Q423 494 411 537T375 614T319 666T246 686Q197 686 162 670T107 638L68 737ZM273 104Q301 104 324 122T365 169T394 233T409 304Q406 316 397 330T372 358T338 381T294 390Q267 390 245 377T208 342T183 290T174 229Q174 203 181 181T200 141T231 114T272 104H273Z"  />
<glyph unicode="&#x2206;" horiz-adv-x="693" d="M27 78L267 721H432L665 79V0H27V78ZM515 109L403 402Q397 421 389 445T372 494T357 541T345 580H342Q339 567 333 548T319 506T303 460T289 417L170 109H515Z"  />
<glyph unicode="&#x220F;" horiz-adv-x="759" d="M626 583V-97H491V583H267V-97H132V583H24V705H734V583H626Z"  />
<glyph unicode="&#x2211;" horiz-adv-x="588" d="M23 -97V-12L275 304L33 611V705H552V590H218V586L429 325L196 30V27H569V-97H23Z"  />
<glyph unicode="&#x2212;" horiz-adv-x="666" d="M59 366H607V240H59V366Z"  />
<glyph unicode="&#x2215;" horiz-adv-x="167" d="M244 740L328 693L-85 -32L-161 11L244 740Z"  />
<glyph unicode="&#x2219;" horiz-adv-x="296" d="M56 283Q56 302 63 319T82 348T112 368T148 375Q167 375 184 368T213 349T233 319T240 283Q240 264 233 247T214 218T184 198T148 191Q129 191 112 198T83 217T63 247T56 283Z"  />
<glyph unicode="&#x221A;" horiz-adv-x="624" d="M398 -142H289L132 298L55 267L32 341L213 415L322 93Q327 70 332 47T343 6L344 5Q347 22 351 47T361 99L539 846H635L398 -142Z"  />
<glyph unicode="&#x221E;" horiz-adv-x="803" d="M753 291Q753 249 739 216T702 159T649 123T587 111Q543 111 499 135T402 228Q382 203 362 182T318 145T269 120T212 111Q180 111 151 123T99 159T63 215T49 286Q49 325 62 357T98 413T152 450T221 463Q279 463 322 432T406 349Q422 367 440 387T481 424T531 452T593 463Q627 463 656 451T706 417T740 363T753 292V291ZM223 185Q244 185 263 193T298 216T331 247T362 282Q346 303 331 323T299 358T263 382T218 391Q173 391 149 361T124 285Q124 243 151 214T221 185H223ZM584 391Q560 391 540 381T503 355T471 321T444 289Q467 260 485 240T520 208T553 191T589 185Q610 185 627 194T655 218T672 250T678 285Q678 333 653 362T585 391H584Z"  />
<glyph unicode="&#x222B;" horiz-adv-x="410" d="M376 769Q368 773 359 775T338 778Q323 778 310 772T286 752Q269 731 264 689T258 584Q258 522 260 465T266 349T271 231T274 101Q274 29 264 -20T236 -100Q215 -142 178 -159T101 -176Q76 -176 54 -171T19 -159L36 -64Q44 -67 55 -71T81 -75Q94 -75 106 -71T127 -55Q141 -36 148 -2T156 101Q156 170 154 232T148 353T143 472T140 597Q140 686 154 738T203 826Q226 851 259 862T326 873Q346 873 363 869T390 861L376 769Z"  />
<glyph unicode="&#x2248;" horiz-adv-x="666" d="M591 228Q562 171 522 134T433 97Q405 97 382 108T336 132T289 157T237 168Q217 168 196 143T154 83L75 161Q88 188 106 211T147 252T193 279T243 289Q274 289 297 278T342 255T384 231T433 220Q451 220 470 241T513 303L591 228ZM591 426Q562 366 522 334T434 301Q409 301 385 312T336 336T287 360T237 371Q228 371 218 364T197 344T175 317T154 287L75 362Q88 388 106 411T146 451T192 477T243 487Q268 487 293 476T342 453T389 429T434 418Q452 418 472 441T513 502L591 426Z"  />
<glyph unicode="&#x2260;" horiz-adv-x="666" d="M59 462H338L388 578L494 535L462 462H607V336H407L378 270H607V144H323L271 25L169 63L203 144H59V270H257L285 336H59V462Z"  />
<glyph unicode="&#x2264;" horiz-adv-x="666" d="M69 313V426L551 619V479L225 371L551 262V124L69 313ZM65 -15V108H555V-15H65Z"  />
<glyph unicode="&#x2265;" horiz-adv-x="666" d="M69 124V262L395 371L69 479V619L551 426V313L69 124ZM65 -15V108H555V-15H65Z"  />
<glyph unicode="&#x25CA;" horiz-adv-x="623" d="M363 -51H255L51 352L259 755H368L572 352L363 -51ZM333 589Q327 603 322 618T313 647H310Q303 619 290 589L171 355L291 111Q297 97 302 82T309 56H313Q316 67 321 84T331 109L452 349L333 589Z"  />
<glyph unicode="&#xE300;" horiz-adv-x="260" d="M232 760H100L-73 904H131L232 760Z"  />
<glyph unicode="&#xE301;" horiz-adv-x="260" d="M131 904H335L162 760H30L131 904Z"  />
<glyph unicode="&#xE302;" horiz-adv-x="260" d="M191 760L128 838L66 760H-69L50 904H213L329 760H191Z"  />
<glyph unicode="&#xE303;" horiz-adv-x="260" d="M65 931L128 853L190 931H325L206 787H43L-73 931H65Z"  />
<glyph unicode="&#xE304;" horiz-adv-x="260" d="M-66 766Q-62 791 -52 816T-27 860T11 892T61 904Q86 904 106 898T148 883Q162 878 175 873T204 868Q221 868 231 878T248 904H326Q321 875 312 850T288 807T250 777T196 766Q174 766 155 772T118 787Q101 795 86 801T55 808Q38 808 28 794T13 766H-66Z"  />
<glyph unicode="&#xE305;" horiz-adv-x="260" d="M25 754Q7 754 -8 761T-34 780T-51 807T-58 840Q-58 856 -52 871T-34 897T-9 915T23 922Q58 922 84 899T110 840Q110 804 86 779T25 754ZM233 754Q215 754 200 761T174 780T157 807T150 840Q150 856 156 871T174 897T199 915T231 922Q266 922 292 899T318 840Q318 804 294 779T233 754Z"  />
<glyph unicode="&#xE306;" horiz-adv-x="260" d="M300 787H-40V883H300V787Z"  />
<glyph unicode="&#xE307;" horiz-adv-x="260" d="M26 904Q29 889 39 880T64 866T96 858T130 856Q169 856 196 863T235 904H314Q310 866 294 839T254 794T198 768T130 760Q95 760 63 767T5 792T-36 837T-54 904H26Z"  />
<glyph unicode="&#xE308;" horiz-adv-x="260" d="M130 731Q107 731 87 740T52 764T28 799T19 842Q19 864 28 884T52 920T87 944T130 953Q152 953 172 944T208 920T232 885T241 842Q241 819 232 799T208 764T173 740T130 731ZM79 842Q79 821 94 806T130 791Q151 791 166 806T181 842Q181 863 166 878T130 893Q109 893 94 878T79 842Z"  />
<glyph unicode="&#xE309;" horiz-adv-x="260" d="M-1 904H203L30 760H-102L-1 904ZM263 904H467L294 760H162L263 904Z"  />
<glyph unicode="&#xE30A;" horiz-adv-x="260" d="M129 754Q111 754 96 761T70 780T53 807T46 840Q46 856 52 871T70 897T95 915T127 922Q162 922 188 899T214 840Q214 804 190 779T129 754Z"  />
<glyph unicode="&#xE30B;" horiz-adv-x="260" d="M81 708H215L135 509H37L81 708Z"  />
<glyph unicode="&#xE30C;" horiz-adv-x="260" d="M91 -61H235L145 -260H27L91 -61Z"  />
<glyph unicode="&#xE30D;" horiz-adv-x="260" d="M161 584H17L107 783H225L161 584Z"  />
<glyph unicode="&#xFB01;" horiz-adv-x="630" d="M425 486H575V0H425V486ZM413 639Q413 675 438 700T500 726Q536 726 561 701T587 639Q587 603 562 578T500 552Q464 552 439 577T413 639ZM105 366H6V486H105V572Q105 612 112 647T139 710T196 752T295 768Q318 768 340 766T383 759L376 632Q363 637 352 639T327 642Q291 642 273 627T255 563V486H366V366H255V0H105V366Z"  />
<glyph unicode="&#xFB02;" horiz-adv-x="630" d="M425 756H575V0H425V756ZM105 366H6V486H105V572Q105 612 112 647T139 710T196 752T295 768Q318 768 340 766T383 759L376 632Q363 637 352 639T327 642Q291 642 273 627T255 563V486H366V366H255V0H105V366Z"  />

</font>
</defs>
</svg>
